# Blender 4.2.3 LTS
# www.blender.org
mtllib livre1.mtl
o Cube
v -0.688404 -0.173500 0.542992
v -0.688404 0.173524 0.542672
v -0.687774 -0.177513 -0.522702
v -0.687774 0.177512 -0.522468
v 0.688404 -0.173500 0.542992
v 0.688404 0.173524 0.542672
v 0.687774 -0.177513 -0.522702
v 0.687774 0.177512 -0.522468
v -0.688404 0.000023 0.589048
v 0.688404 0.000023 0.589048
v -0.688404 -0.151871 0.527544
v -0.688404 0.151891 0.527229
v -0.687774 -0.157522 -0.522729
v -0.687774 0.157522 -0.522498
v 0.688404 -0.151871 0.527544
v 0.688404 0.151891 0.527229
v 0.687774 -0.157522 -0.522729
v 0.687774 0.157522 -0.522498
v -0.688404 0.000020 0.565981
v 0.688405 0.000020 0.565981
v -0.688404 0.153989 -0.352584
v -0.688404 0.179871 -0.352490
v 0.455996 0.180291 0.532864
v -0.455996 0.180291 0.532864
v 0.455996 0.147521 0.513753
v -0.455996 0.147521 0.513753
v 0.688404 0.152982 0.516939
v -0.688404 0.152982 0.516939
v 0.688404 0.174829 0.529679
v -0.688404 0.174829 0.529679
v 0.455996 -0.180849 -0.523330
v -0.455996 -0.180849 -0.523330
v -0.455996 0.180848 -0.523174
v 0.455996 0.180848 -0.523174
v -0.455996 -0.178907 0.546855
v 0.455996 -0.178907 0.546855
v -0.455996 0.178933 0.546533
v 0.455996 0.178933 0.546533
v 0.455996 0.000023 0.594815
v -0.455996 0.000023 0.594815
v -0.455996 -0.154191 -0.523358
v 0.455996 -0.154191 -0.523358
v 0.455996 0.154191 -0.523204
v -0.455996 0.154191 -0.523204
v 0.455996 -0.146463 0.523682
v -0.455996 -0.146463 0.523682
v 0.455996 0.146483 0.523369
v -0.455996 0.146483 0.523369
v -0.455996 0.000019 0.560214
v 0.455996 0.000019 0.560214
v 0.688404 0.179871 -0.352490
v -0.455996 0.186341 -0.352466
v 0.688404 0.153989 -0.352584
v 0.455996 0.147518 -0.352608
v -0.455996 0.147518 -0.352608
v 0.455996 0.186341 -0.352466
v -0.688404 -0.174820 0.531217
v 0.688404 -0.174820 0.531217
v -0.688404 -0.152980 0.518459
v 0.688404 -0.152981 0.518458
v 0.455996 -0.147521 0.515269
v -0.455996 -0.147521 0.515269
v 0.455996 -0.180280 0.534407
v -0.455996 -0.180280 0.534407
v 0.688404 -0.179873 -0.352823
v 0.688404 -0.153989 -0.352908
v 0.455996 -0.147518 -0.352930
v -0.455996 -0.186344 -0.352801
v -0.688404 -0.179873 -0.352822
v -0.688404 -0.153989 -0.352908
v -0.455996 -0.147518 -0.352929
v 0.455996 -0.186344 -0.352801
v 0.688404 -0.140598 0.556811
v -0.688404 -0.140598 0.556811
v 0.688404 -0.123074 0.539220
v -0.688404 -0.123074 0.539220
v -0.455996 -0.118694 0.534823
v 0.455996 -0.118694 0.534823
v -0.455996 -0.144979 0.561209
v 0.455996 -0.144979 0.561209
v -0.688404 0.140688 0.556777
v 0.688404 0.140688 0.556777
v -0.688404 0.123154 0.539192
v 0.688404 0.123154 0.539192
v -0.455996 0.118770 0.534795
v 0.455996 0.118770 0.534795
v -0.455996 0.145072 0.561173
v 0.455996 0.145072 0.561173
v 0.688405 0.174036 0.310940
v 0.688404 0.172950 0.502041
v 0.688404 0.166942 0.485990
v -0.688404 0.152803 0.310857
v -0.688404 0.152594 0.499437
v -0.688404 0.151384 0.485915
v -0.455996 0.178039 0.502692
v -0.455996 0.179344 0.310961
v -0.455996 0.170831 0.486009
v 0.688404 0.152803 0.310857
v 0.688404 0.152594 0.499437
v 0.688404 0.151384 0.485915
v 0.455996 0.179344 0.310961
v 0.455996 0.178039 0.502692
v 0.455996 0.170831 0.486009
v 0.455996 0.147495 0.310836
v 0.455996 0.147505 0.498786
v 0.455996 0.147495 0.485896
v -0.455996 0.147505 0.498786
v -0.455996 0.147495 0.310836
v -0.455996 0.147495 0.485896
v -0.688404 0.172950 0.502041
v -0.688404 0.174036 0.310940
v -0.688404 0.166942 0.485990
v -0.688404 -0.174028 0.312242
v -0.688404 -0.172940 0.503811
v -0.688404 -0.166932 0.487740
v -0.688404 -0.152592 0.501203
v -0.688404 -0.152801 0.312161
v -0.688404 -0.151382 0.487665
v -0.455996 -0.147495 0.312140
v -0.455996 -0.147505 0.500550
v -0.455996 -0.147495 0.487646
v 0.455996 -0.178027 0.504460
v 0.455996 -0.179335 0.312260
v 0.455996 -0.170819 0.487756
v 0.688404 -0.172940 0.503808
v 0.688404 -0.174028 0.312239
v 0.688404 -0.166932 0.487737
v 0.688404 -0.152801 0.312158
v 0.688404 -0.152592 0.501200
v 0.688404 -0.151382 0.487662
v 0.455996 -0.147505 0.500548
v 0.455996 -0.147495 0.312138
v 0.455996 -0.147495 0.487643
v -0.455996 -0.178027 0.504462
v -0.455996 -0.179335 0.312262
v -0.455996 -0.170819 0.487758
v -0.688404 -0.174619 0.539183
v -0.688404 0.167562 0.546362
v -0.688297 0.180143 -0.499617
v 0.000000 0.147518 -0.352608
v -0.657464 0.185533 -0.352469
v 0.688297 -0.180146 -0.500039
v 0.688404 0.174627 0.538250
v 0.688404 -0.167497 0.546426
v 0.455996 0.148357 -0.499784
v 0.688296 0.180143 -0.499617
v -0.688404 -0.080275 0.577083
v 0.688404 0.080343 0.577060
v 0.657463 0.148203 0.514151
v -0.688404 -0.152837 0.524160
v -0.688404 0.146677 0.530514
v -0.688296 0.154733 -0.499679
v -0.657463 0.179608 0.532466
v -0.657463 0.148203 0.514152
v 0.688296 -0.154733 -0.500094
v 0.688404 0.152840 0.523240
v 0.688404 -0.146620 0.530573
v 0.455996 0.180074 0.542002
v -0.455996 0.147394 0.519487
v -0.688404 -0.070270 0.556048
v 0.688404 0.070330 0.556029
v -0.689349 -0.162685 0.535268
v -0.689349 0.162708 0.534951
v -0.688189 -0.167519 -0.523129
v -0.688189 0.167519 -0.522947
v 0.689349 -0.162685 0.535268
v 0.689349 0.162708 0.534951
v 0.688189 -0.167519 -0.523129
v 0.688189 0.167519 -0.522947
v -0.689349 0.000021 0.577515
v 0.689349 0.000021 0.577515
v -0.657464 0.148327 -0.352605
v 0.657463 0.148327 -0.352605
v 0.688296 0.154733 -0.499679
v -0.689349 0.163906 0.523309
v 0.689349 0.163906 0.523309
v 0.000000 0.147521 0.513753
v -0.688404 0.174627 0.538250
v 0.657463 0.185533 -0.352469
v 0.000000 0.180291 0.532864
v 0.657463 0.179608 0.532466
v -0.688404 0.152840 0.523240
v -0.455996 0.186520 -0.499694
v 0.689349 0.166930 -0.352537
v 0.000000 0.180848 -0.523174
v 0.455996 0.167523 -0.524248
v 0.000000 0.154191 -0.523204
v -0.455996 0.167523 -0.524248
v -0.000000 -0.180849 -0.523330
v -0.455996 -0.167523 -0.524287
v -0.000000 -0.154191 -0.523358
v 0.455996 -0.167523 -0.524287
v -0.000000 -0.146463 0.523682
v -0.455996 -0.067769 0.550790
v -0.000000 0.000019 0.560214
v 0.455996 -0.141401 0.526610
v 0.000000 0.146483 0.523369
v -0.455996 0.148357 -0.499785
v 0.455996 0.147394 0.519487
v 0.455996 -0.148357 -0.500189
v -0.455996 -0.147391 0.520404
v -0.455996 0.141456 0.526552
v 0.455996 0.067826 0.550771
v -0.000000 0.000023 0.594815
v -0.455996 -0.172716 0.550389
v 0.000000 -0.178907 0.546855
v 0.455996 -0.082777 0.582342
v -0.455996 0.180074 0.542002
v 0.000000 0.178933 0.546533
v 0.455996 0.186520 -0.499694
v 0.455996 -0.180064 0.542939
v -0.455996 -0.186523 -0.500108
v -0.455996 0.082847 0.582317
v 0.455996 0.172783 0.550324
v -0.657382 -0.180277 -0.523223
v -0.657463 -0.178231 0.546372
v -0.657382 -0.154762 -0.523250
v 0.657382 -0.180278 -0.523223
v 0.657463 -0.178231 0.546372
v 0.657382 -0.154762 -0.523250
v 0.657382 0.180276 -0.523053
v 0.657463 0.178257 0.546050
v 0.657382 0.154762 -0.523084
v -0.657382 0.180276 -0.523053
v -0.657463 0.178257 0.546050
v -0.657382 0.154762 -0.523084
v 0.657464 0.000023 0.594095
v -0.657464 0.000023 0.594094
v -0.657463 -0.147139 0.524164
v 0.657463 -0.147139 0.524164
v 0.657463 0.147159 0.523851
v -0.657463 0.147159 0.523851
v 0.657463 0.000019 0.560935
v -0.657463 0.000019 0.560935
v -0.000000 0.186341 -0.352466
v -0.689349 0.166930 -0.352537
v 0.688404 -0.174619 0.539183
v 0.688404 -0.152837 0.524160
v 0.455996 -0.147391 0.520404
v -0.455996 -0.180064 0.542939
v -0.657463 -0.179598 0.534008
v -0.000000 -0.180280 0.534407
v -0.000000 -0.147521 0.515269
v -0.657463 -0.148203 0.515668
v 0.657463 -0.148203 0.515667
v 0.689349 -0.163900 0.524837
v 0.657463 -0.179598 0.534008
v -0.689349 -0.163900 0.524838
v -0.688296 -0.180146 -0.500039
v -0.688297 -0.154733 -0.500094
v -0.455996 -0.148357 -0.500189
v 0.455996 -0.186523 -0.500108
v -0.689349 -0.166931 -0.352865
v 0.657463 -0.185535 -0.352804
v 0.657463 -0.148327 -0.352927
v -0.657463 -0.148327 -0.352926
v 0.000000 -0.186344 -0.352801
v -0.657464 -0.185535 -0.352803
v -0.000000 -0.147518 -0.352929
v 0.689349 -0.166931 -0.352865
v 0.688404 -0.080275 0.577083
v -0.688404 -0.167497 0.546426
v 0.688405 -0.070270 0.556048
v -0.688405 -0.146620 0.530573
v -0.455996 -0.141401 0.526610
v 0.455996 -0.067769 0.550790
v -0.455996 -0.082777 0.582342
v 0.455996 -0.172716 0.550389
v 0.000000 -0.144979 0.561209
v -0.000000 -0.118694 0.534823
v -0.657464 -0.144431 0.560659
v -0.657463 -0.119241 0.535372
v 0.657464 -0.144431 0.560659
v -0.689349 -0.131836 0.548016
v 0.689349 -0.131836 0.548016
v 0.657463 -0.119241 0.535372
v -0.688404 0.080343 0.577060
v 0.688404 0.167562 0.546362
v -0.688404 0.070330 0.556029
v 0.688405 0.146677 0.530514
v -0.455996 0.067826 0.550771
v 0.455996 0.141456 0.526552
v -0.455996 0.172783 0.550324
v 0.455996 0.082847 0.582317
v -0.000000 0.145072 0.561173
v -0.000000 0.118770 0.534795
v 0.689349 0.131921 0.547984
v -0.689349 0.131921 0.547984
v -0.657463 0.119318 0.535345
v 0.657463 0.119318 0.535345
v -0.657463 0.144524 0.560624
v 0.657463 0.144524 0.560624
v -0.688404 0.169376 0.459586
v -0.689349 0.163419 0.310898
v -0.688404 0.151869 0.459510
v -0.689349 0.159163 0.485953
v -0.688404 0.169192 0.492520
v -0.688404 0.151838 0.492128
v -0.689349 0.162772 0.500739
v -0.455996 0.147492 0.459490
v -0.000000 0.147495 0.310836
v 0.455996 0.147492 0.459490
v -0.000000 0.147495 0.485896
v -0.455996 0.147499 0.492030
v 0.455996 0.147499 0.492030
v -0.000000 0.147505 0.498786
v 0.688404 0.151838 0.492128
v 0.657463 0.148141 0.498868
v 0.657464 0.147981 0.485898
v 0.688404 0.151869 0.459510
v 0.657463 0.148158 0.310838
v -0.657464 0.177403 0.502610
v -0.455996 0.173531 0.492618
v -0.657464 0.170345 0.486007
v -0.455996 0.173753 0.459605
v -0.657464 0.178681 0.310958
v 0.688404 0.169192 0.492520
v 0.689349 0.162772 0.500739
v 0.689349 0.159163 0.485953
v 0.688404 0.169376 0.459586
v 0.689349 0.163419 0.310898
v 0.455996 0.173531 0.492618
v 0.657463 0.177403 0.502610
v 0.657463 0.170345 0.486007
v 0.455996 0.173753 0.459605
v 0.657463 0.178681 0.310958
v -0.657463 0.148141 0.498868
v -0.657463 0.147981 0.485898
v -0.657463 0.148158 0.310838
v -0.000000 0.178039 0.502692
v -0.000000 0.170831 0.486009
v -0.000000 0.179344 0.310961
v 0.688404 -0.169366 0.461277
v 0.689349 -0.163415 0.312199
v 0.688404 -0.151867 0.461200
v 0.689349 -0.159157 0.487699
v 0.688404 -0.169182 0.494269
v 0.688404 -0.151836 0.493877
v 0.689349 -0.162766 0.502504
v 0.455996 -0.147492 0.461182
v 0.000000 -0.147495 0.312139
v -0.455996 -0.147492 0.461184
v 0.000000 -0.147495 0.487644
v 0.455996 -0.147499 0.493780
v -0.455996 -0.147499 0.493782
v 0.000000 -0.147505 0.500549
v -0.688404 -0.169182 0.494272
v -0.689349 -0.162766 0.502507
v -0.688404 -0.151836 0.493880
v -0.689349 -0.159157 0.487703
v -0.688404 -0.169366 0.461280
v -0.688404 -0.151867 0.461204
v -0.689349 -0.163415 0.312202
v 0.657464 -0.177391 0.504378
v 0.455996 -0.173519 0.494367
v 0.657464 -0.170333 0.487753
v 0.455996 -0.173741 0.461296
v 0.657463 -0.178672 0.312257
v 0.657463 -0.148141 0.500629
v 0.657463 -0.147981 0.487645
v 0.657463 -0.148158 0.312141
v -0.657463 -0.148141 0.500632
v -0.657463 -0.147981 0.487648
v -0.657463 -0.148158 0.312143
v 0.000000 -0.178027 0.504461
v -0.455996 -0.173519 0.494369
v 0.000000 -0.170819 0.487757
v -0.455996 -0.173741 0.461298
v 0.000000 -0.179335 0.312261
v -0.657464 -0.177391 0.504381
v -0.657464 -0.170333 0.487757
v -0.657464 -0.178672 0.312260
v 0.688404 0.174651 0.516002
v 0.688404 0.152941 0.508339
v 0.688404 0.177716 -0.020995
v 0.455996 0.183758 -0.020971
v 0.688404 0.153548 -0.021092
v 0.455996 0.180078 0.517918
v -0.455996 0.147506 -0.021116
v -0.688404 0.153548 -0.021092
v -0.688404 0.174651 0.516002
v -0.688404 0.152941 0.508339
v -0.688404 0.177716 -0.020995
v -0.455996 0.147513 0.506423
v -0.455996 0.180078 0.517918
v -0.455996 0.183758 -0.020971
v 0.455996 0.147513 0.506423
v 0.455996 0.147506 -0.021116
v -0.688404 -0.174641 0.517773
v -0.688404 -0.152939 0.510097
v -0.688404 -0.177714 -0.020569
v -0.455996 -0.183755 -0.020547
v -0.688404 -0.153547 -0.020659
v -0.455996 -0.180066 0.519692
v -0.455996 -0.147513 0.508177
v -0.455996 -0.147506 -0.020682
v 0.455996 -0.147513 0.508176
v 0.455996 -0.147506 -0.020683
v 0.455996 -0.180066 0.519691
v 0.688404 -0.174641 0.517771
v 0.455996 -0.183755 -0.020548
v 0.688404 -0.177714 -0.020571
v 0.688404 -0.153548 -0.020661
v 0.688404 -0.152939 0.510095
v 0.657463 0.172131 0.549829
v 0.657423 -0.167523 -0.524141
v -0.657423 0.167522 -0.524085
v -0.657464 0.172131 0.549829
v 0.657463 0.142109 0.527048
v 0.657463 0.148074 0.519956
v 0.657463 -0.068082 0.551447
v -0.657463 0.142109 0.527048
v -0.689349 -0.163728 0.531672
v -0.689349 0.157120 0.538438
v -0.689204 0.167438 -0.499693
v 0.657463 -0.179384 0.542469
v -0.657463 0.179393 0.541533
v 0.689204 -0.167440 -0.500107
v 0.689349 0.163734 0.530745
v 0.689349 -0.157058 0.538500
v -0.689349 -0.075273 0.566566
v 0.689349 0.075337 0.566544
v 0.657463 -0.082464 0.581685
v 0.657463 0.179393 0.541533
v -0.657463 -0.068082 0.551447
v -0.657463 0.148074 0.519956
v 0.657464 -0.148072 0.520874
v -0.657464 0.183003 -0.020974
v -0.657464 -0.082464 0.581685
v 0.657423 0.167522 -0.524085
v -0.657423 -0.167523 -0.524141
v -0.657463 -0.148072 0.520874
v -0.000000 0.167523 -0.524248
v 0.000000 -0.167523 -0.524287
v 0.000000 -0.067769 0.550790
v -0.000000 0.148357 -0.499784
v 0.000000 -0.148357 -0.500189
v 0.000000 0.141456 0.526552
v -0.000000 -0.172716 0.550389
v 0.000000 0.180074 0.542002
v -0.000000 -0.180064 0.542939
v 0.000000 0.082847 0.582317
v -0.657463 -0.179384 0.542469
v 0.000000 0.147394 0.519487
v -0.657464 0.179400 0.517678
v -0.657464 0.148261 -0.021113
v 0.657463 0.183003 -0.020974
v 0.000000 0.183758 -0.020971
v -0.689349 0.163734 0.530745
v 0.657463 0.148261 -0.021113
v 0.657443 0.149156 -0.499760
v -0.657443 0.185721 -0.499673
v 0.689204 0.167438 -0.499693
v 0.657443 0.185721 -0.499673
v -0.657443 0.149156 -0.499760
v -0.689349 -0.163790 0.513935
v 0.000000 0.186520 -0.499694
v -0.657464 0.148192 0.506662
v -0.657463 -0.148191 0.508418
v 0.657463 -0.183000 -0.020551
v 0.000000 -0.147391 0.520404
v -0.657463 -0.148261 -0.020679
v 0.689349 -0.163728 0.531671
v -0.000000 -0.183755 -0.020547
v -0.657464 -0.183000 -0.020549
v -0.689204 -0.167440 -0.500107
v 0.657443 -0.185724 -0.500089
v 0.657443 -0.149156 -0.500167
v -0.657443 -0.149156 -0.500167
v -0.000000 -0.186523 -0.500108
v -0.657443 -0.185724 -0.500089
v 0.657464 -0.179388 0.519450
v 0.689349 -0.163790 0.513933
v 0.000000 -0.082777 0.582342
v 0.000000 -0.141401 0.526610
v -0.657463 -0.172064 0.549893
v -0.657464 -0.142053 0.527106
v 0.657463 -0.172063 0.549893
v -0.689349 -0.157058 0.538500
v 0.689349 -0.075273 0.566566
v 0.657463 -0.142053 0.527106
v 0.000000 0.172783 0.550324
v 0.000000 0.067826 0.550771
v 0.689349 0.157120 0.538438
v -0.689349 0.075337 0.566544
v -0.657464 0.068139 0.551428
v 0.657463 0.068139 0.551428
v -0.657464 0.082534 0.581660
v 0.657463 0.082534 0.581660
v -0.689349 0.165632 -0.021043
v 0.000000 0.147506 -0.021116
v 0.000000 0.147513 0.506423
v 0.657463 0.148192 0.506662
v 0.657463 0.179400 0.517679
v 0.689349 0.165632 -0.021043
v -0.689349 0.163796 0.512170
v 0.000000 0.180078 0.517918
v 0.657464 -0.148261 -0.020680
v -0.000000 -0.147506 -0.020682
v -0.657464 -0.179388 0.519452
v 0.689349 -0.165631 -0.020616
v 0.657464 -0.148191 0.508416
v -0.000000 -0.147513 0.508177
v -0.000000 -0.180066 0.519691
v -0.689349 -0.165631 -0.020614
v -0.689349 0.160623 0.459548
v -0.689349 0.160515 0.492324
v 0.000000 0.147492 0.459490
v 0.000000 0.147499 0.492030
v 0.657464 0.148041 0.492043
v 0.657463 0.148039 0.459493
v -0.657464 0.172989 0.492605
v -0.657464 0.173206 0.459603
v 0.689349 0.160515 0.492324
v 0.689349 0.160622 0.459548
v 0.657464 0.172989 0.492605
v 0.657464 0.173206 0.459603
v -0.657464 0.148041 0.492043
v -0.657464 0.148039 0.459493
v 0.000000 0.173531 0.492618
v 0.000000 0.173753 0.459605
v 0.689349 -0.160617 0.461238
v 0.689349 -0.160509 0.494073
v -0.000000 -0.147492 0.461183
v -0.000000 -0.147499 0.493781
v -0.689349 -0.160509 0.494076
v -0.689349 -0.160617 0.461242
v 0.657464 -0.172977 0.494354
v 0.657464 -0.173194 0.461293
v 0.657464 -0.148041 0.493791
v 0.657464 -0.148039 0.461184
v -0.657463 -0.148041 0.493795
v -0.657463 -0.148039 0.461187
v -0.000000 -0.173519 0.494368
v -0.000000 -0.173741 0.461297
v -0.657464 -0.172977 0.494358
v -0.657464 -0.173194 0.461297
v 0.689349 0.163796 0.512170
vn 0.1580 0.3362 0.9284
vn 0.1643 0.4358 0.8849
vn 0.0842 0.4466 0.8907
vn 0.0809 0.3416 0.9363
vn 0.1706 0.5179 0.8383
vn 0.0855 0.5233 0.8479
vn 0.0019 0.5248 0.8512
vn 0.0018 0.4465 0.8948
vn 0.0018 0.3432 0.9393
vn 0.0277 -0.0596 -0.9978
vn 0.0138 -0.0659 -0.9977
vn 0.0142 -0.0011 -0.9999
vn 0.0277 -0.0012 -0.9996
vn 0.0004 -0.0717 -0.9974
vn 0.0004 -0.0010 -1.0000
vn 0.0004 0.0696 -0.9976
vn 0.0137 0.0636 -0.9979
vn 0.0276 0.0572 -0.9980
vn -0.0311 0.0669 -0.9973
vn -0.0155 0.0739 -0.9971
vn -0.0160 0.0013 -0.9999
vn -0.0311 0.0014 -0.9995
vn -0.0004 0.0805 -0.9968
vn -0.0004 0.0012 -1.0000
vn -0.0004 -0.0781 -0.9969
vn -0.0154 -0.0714 -0.9973
vn -0.0310 -0.0642 -0.9975
vn -0.0018 0.3432 0.9393
vn -0.0018 0.4465 0.8948
vn -0.0842 0.4466 0.8907
vn -0.0809 0.3416 0.9363
vn -0.0019 0.5248 0.8512
vn -0.0855 0.5233 0.8479
vn -0.1706 0.5179 0.8383
vn -0.1643 0.4358 0.8849
vn -0.1580 0.3362 0.9284
vn 0.1567 -0.3201 -0.9344
vn 0.0804 -0.3203 -0.9439
vn 0.0846 -0.4372 -0.8954
vn 0.1648 -0.4403 -0.8826
vn 0.0017 -0.3206 -0.9472
vn 0.0018 -0.4408 -0.8976
vn 0.0019 -0.5350 -0.8448
vn 0.0897 -0.5323 -0.8418
vn 0.1712 -0.5260 -0.8330
vn 0.1533 -0.9881 -0.0101
vn 0.1644 -0.9777 -0.1307
vn 0.0843 -0.9888 -0.1233
vn 0.0786 -0.9969 -0.0096
vn 0.1716 -0.9587 -0.2268
vn 0.0899 -0.9694 -0.2285
vn 0.0019 -0.9735 -0.2286
vn 0.0018 -0.9920 -0.1260
vn 0.0017 -0.9999 -0.0105
vn 0.1566 0.3193 -0.9346
vn 0.0804 0.3196 -0.9441
vn 0.0813 0.2186 -0.9724
vn 0.1580 0.2202 -0.9626
vn 0.0017 0.3199 -0.9475
vn 0.0018 0.2193 -0.9757
vn 0.0018 -0.0001 -1.0000
vn 0.0820 -0.0001 -0.9966
vn 0.1588 -0.0001 -0.9873
vn -0.0017 -0.3206 -0.9472
vn -0.0804 -0.3203 -0.9439
vn -0.0846 -0.4372 -0.8954
vn -0.0018 -0.4408 -0.8976
vn -0.1567 -0.3201 -0.9344
vn -0.1648 -0.4403 -0.8826
vn -0.1712 -0.5260 -0.8330
vn -0.0897 -0.5323 -0.8418
vn -0.0019 -0.5350 -0.8448
vn -0.9963 -0.0856 0.0011
vn -0.9970 -0.0765 0.0145
vn -1.0000 -0.0082 -0.0017
vn -1.0000 -0.0013 -0.0006
vn -0.9975 -0.0561 0.0434
vn -0.9998 -0.0130 0.0116
vn -0.9975 0.0552 -0.0447
vn -0.9967 0.0803 -0.0090
vn -0.9963 0.0862 -0.0003
vn -0.9965 0.0286 0.0784
vn -0.9969 0.0369 0.0697
vn -1.0000 0.0007 0.0064
vn -1.0000 0.0001 0.0010
vn -0.9975 0.0575 0.0416
vn -0.9998 0.0140 0.0105
vn -0.9975 -0.0575 -0.0415
vn -0.9967 -0.0336 -0.0738
vn -0.9965 -0.0270 -0.0791
vn -0.9973 0.0737 -0.0001
vn -0.9977 0.0658 -0.0179
vn -0.9998 -0.0000 -0.0189
vn -1.0000 -0.0000 -0.0004
vn -0.9976 0.0590 -0.0365
vn -0.9993 0.0001 -0.0368
vn -0.9976 -0.0588 -0.0369
vn -0.9977 -0.0657 -0.0183
vn -0.9973 -0.0737 -0.0007
vn 0.0017 -1.0000 0.0054
vn 0.0784 -0.9969 0.0061
vn 0.0849 -0.9838 0.1579
vn 0.0018 -0.9878 0.1557
vn 0.1529 -0.9882 0.0045
vn 0.1657 -0.9752 0.1465
vn 0.1749 -0.9445 0.2781
vn 0.0880 -0.9554 0.2818
vn 0.0019 -0.9590 0.2833
vn -0.0017 1.0000 0.0048
vn -0.0784 0.9969 0.0054
vn -0.0841 0.9870 0.1367
vn -0.0018 0.9909 0.1348
vn -0.1529 0.9882 0.0039
vn -0.1640 0.9783 0.1264
vn -0.1724 0.9555 0.2393
vn -0.0866 0.9663 0.2426
vn -0.0019 0.9697 0.2441
vn 0.9973 -0.0737 -0.0001
vn 0.9977 -0.0657 -0.0180
vn 0.9998 -0.0000 -0.0191
vn 1.0000 -0.0000 -0.0004
vn 0.9976 -0.0589 -0.0369
vn 0.9993 -0.0001 -0.0371
vn 0.9976 0.0587 -0.0373
vn 0.9977 0.0657 -0.0185
vn 0.9973 0.0737 -0.0007
vn 0.9963 0.0857 0.0010
vn 0.9969 0.0778 0.0127
vn 1.0000 0.0071 -0.0016
vn 1.0000 0.0012 -0.0005
vn 0.9975 0.0575 0.0416
vn 0.9998 0.0140 0.0105
vn 0.9975 -0.0575 -0.0415
vn 0.9967 -0.0812 -0.0077
vn 0.9963 -0.0862 -0.0002
vn 0.9965 -0.0286 0.0785
vn 0.9968 -0.0358 0.0713
vn 1.0000 -0.0004 0.0053
vn 1.0000 -0.0001 0.0009
vn 0.9975 -0.0561 0.0434
vn 0.9998 -0.0130 0.0116
vn 0.9975 0.0552 -0.0447
vn 0.9967 0.0328 -0.0749
vn 0.9965 0.0270 -0.0791
vn -0.9965 -0.0286 0.0785
vn -0.9966 -0.0202 0.0805
vn -1.0000 -0.0003 0.0046
vn -1.0000 -0.0001 0.0009
vn -0.9966 -0.0000 0.0827
vn -1.0000 -0.0000 0.0076
vn -0.9966 -0.0000 -0.0827
vn -0.9965 0.0178 -0.0812
vn -0.9965 0.0270 -0.0791
vn 0.9965 0.0286 0.0785
vn 0.9966 0.0202 0.0805
vn 1.0000 0.0003 0.0046
vn 1.0000 0.0001 0.0010
vn 0.9966 -0.0000 0.0827
vn 1.0000 -0.0000 0.0076
vn 0.9966 -0.0000 -0.0827
vn 0.9965 -0.0179 -0.0812
vn 0.9965 -0.0270 -0.0791
vn 0.1580 -0.3356 0.9287
vn 0.1585 -0.2302 0.9602
vn 0.0809 -0.2356 0.9685
vn 0.0809 -0.3410 0.9366
vn 0.1591 0.0001 0.9873
vn 0.0810 0.0001 0.9967
vn 0.0018 0.0001 1.0000
vn 0.0018 -0.2362 0.9717
vn 0.0018 -0.3426 0.9395
vn 0.1529 0.9882 0.0039
vn 0.0784 0.9969 0.0054
vn 0.0841 0.9870 0.1367
vn 0.1640 0.9783 0.1264
vn 0.0017 1.0000 0.0048
vn 0.0018 0.9909 0.1348
vn 0.0019 0.9697 0.2441
vn 0.0866 0.9663 0.2426
vn 0.1724 0.9555 0.2393
vn -0.0017 0.3199 -0.9475
vn -0.0804 0.3196 -0.9441
vn -0.0813 0.2186 -0.9724
vn -0.0018 0.2193 -0.9757
vn -0.1566 0.3193 -0.9346
vn -0.1580 0.2202 -0.9626
vn -0.1588 -0.0001 -0.9873
vn -0.0820 -0.0001 -0.9966
vn -0.0018 -0.0001 -1.0000
vn -0.0017 -0.9999 -0.0105
vn -0.0018 -0.9920 -0.1260
vn -0.0843 -0.9888 -0.1233
vn -0.0786 -0.9969 -0.0096
vn -0.0019 -0.9735 -0.2286
vn -0.0899 -0.9694 -0.2285
vn -0.1716 -0.9587 -0.2268
vn -0.1644 -0.9777 -0.1307
vn -0.1533 -0.9881 -0.0101
vn 0.0017 0.9999 -0.0120
vn 0.0018 0.9887 -0.1499
vn 0.0853 0.9855 -0.1466
vn 0.0786 0.9968 -0.0110
vn 0.0019 0.9622 -0.2724
vn 0.0912 0.9580 -0.2719
vn 0.1744 0.9471 -0.2694
vn 0.1663 0.9739 -0.1546
vn 0.1534 0.9881 -0.0115
vn -0.0020 1.0000 0.0045
vn -0.0906 0.9959 0.0044
vn -0.0853 0.9963 0.0100
vn -0.0019 0.9999 0.0105
vn -0.1766 0.9843 0.0042
vn -0.1663 0.9860 0.0094
vn -0.1470 0.9889 0.0228
vn -0.0753 0.9969 0.0241
vn -0.0016 0.9997 0.0253
vn -0.0018 -0.3426 0.9395
vn -0.0018 -0.2362 0.9717
vn -0.0809 -0.2356 0.9685
vn -0.0809 -0.3410 0.9366
vn -0.0018 0.0001 1.0000
vn -0.0810 0.0001 0.9967
vn -0.1591 0.0001 0.9873
vn -0.1585 -0.2302 0.9602
vn -0.1580 -0.3356 0.9287
vn 0.0004 0.0804 -0.9968
vn 0.0155 0.0739 -0.9971
vn 0.0160 0.0013 -0.9999
vn 0.0004 0.0012 -1.0000
vn 0.0311 0.0669 -0.9973
vn 0.0311 0.0014 -0.9995
vn 0.0310 -0.0642 -0.9975
vn 0.0154 -0.0714 -0.9973
vn 0.0004 -0.0781 -0.9969
vn -0.0004 -0.0717 -0.9974
vn -0.0138 -0.0659 -0.9977
vn -0.0142 -0.0011 -0.9999
vn -0.0004 -0.0011 -1.0000
vn -0.0277 -0.0596 -0.9978
vn -0.0277 -0.0012 -0.9996
vn -0.0276 0.0572 -0.9980
vn -0.0137 0.0636 -0.9979
vn -0.0004 0.0696 -0.9976
vn -0.1534 0.9881 -0.0115
vn -0.1663 0.9739 -0.1546
vn -0.0853 0.9855 -0.1466
vn -0.0786 0.9968 -0.0110
vn -0.1744 0.9471 -0.2694
vn -0.0912 0.9580 -0.2719
vn -0.0019 0.9622 -0.2724
vn -0.0018 0.9887 -0.1499
vn -0.0017 0.9999 -0.0120
vn -0.0000 0.0012 -1.0000
vn -0.0000 0.0804 -0.9968
vn -0.0000 -0.0781 -0.9969
vn -0.0000 -0.0010 -1.0000
vn -0.0000 -0.0716 -0.9974
vn -0.0000 0.0695 -0.9976
vn -0.0000 0.2192 -0.9757
vn -0.0000 0.3197 -0.9475
vn -0.0000 -0.0001 -1.0000
vn -0.0020 -1.0000 -0.0029
vn -0.0019 -0.9923 -0.1236
vn -0.0000 -0.9922 -0.1246
vn -0.0000 -1.0000 -0.0029
vn -0.0017 -0.9708 -0.2397
vn -0.0000 -0.9703 -0.2417
vn 0.0017 -0.9708 -0.2397
vn 0.0019 -0.9923 -0.1236
vn 0.0020 -1.0000 -0.0029
vn 0.0020 1.0000 -0.0029
vn 0.0019 0.9922 -0.1248
vn -0.0000 0.9920 -0.1259
vn -0.0000 1.0000 -0.0029
vn 0.0017 0.9702 -0.2421
vn -0.0000 0.9697 -0.2442
vn -0.0017 0.9702 -0.2421
vn -0.0019 0.9922 -0.1248
vn -0.0020 1.0000 -0.0029
vn -0.0000 -0.4409 -0.8976
vn -0.0000 -0.3204 -0.9473
vn -0.0000 -0.5351 -0.8448
vn -0.0018 -0.4307 0.9025
vn -0.0000 -0.4307 0.9025
vn -0.0000 -0.3426 0.9395
vn -0.0019 -0.4958 0.8685
vn -0.0000 -0.4957 0.8685
vn 0.0019 -0.4958 0.8685
vn 0.0018 -0.4307 0.9025
vn -0.0000 0.9909 0.1348
vn -0.0000 1.0000 0.0048
vn -0.0000 0.9697 0.2442
vn -0.0000 -0.9878 0.1556
vn -0.0000 -1.0000 0.0054
vn -0.0000 -0.9590 0.2834
vn -0.0019 -0.9590 0.2833
vn -0.0018 -0.9878 0.1557
vn -0.0017 -1.0000 0.0054
vn -0.0018 0.2364 0.9717
vn -0.0000 0.2364 0.9717
vn -0.0000 0.3432 0.9392
vn -0.0000 0.0001 1.0000
vn 0.0018 0.2364 0.9717
vn -0.1529 -0.9882 0.0045
vn -0.0784 -0.9969 0.0061
vn -0.0849 -0.9838 0.1579
vn -0.1657 -0.9752 0.1465
vn -0.0880 -0.9554 0.2818
vn -0.1749 -0.9445 0.2781
vn -0.0000 -0.9920 -0.1260
vn -0.0000 -0.9735 -0.2285
vn -0.0000 -0.9999 -0.0106
vn -0.0014 0.9621 -0.2726
vn -0.0669 0.9626 -0.2625
vn -0.0750 0.9947 -0.0704
vn -0.0016 0.9973 -0.0734
vn -0.1306 0.9565 -0.2608
vn -0.1464 0.9866 -0.0716
vn -0.0019 -1.0000 -0.0001
vn -0.0853 -0.9964 -0.0006
vn -0.0906 -0.9959 -0.0030
vn -0.0016 -1.0000 -0.0002
vn -0.0754 -0.9972 -0.0013
vn -0.1471 -0.9891 -0.0024
vn -0.1663 -0.9861 -0.0010
vn -0.1766 -0.9843 -0.0030
vn 0.1766 0.9843 0.0042
vn 0.0906 0.9959 0.0044
vn 0.0853 0.9963 0.0100
vn 0.1663 0.9860 0.0094
vn 0.0020 1.0000 0.0045
vn 0.0019 0.9999 0.0105
vn 0.0016 0.9997 0.0253
vn 0.0753 0.9969 0.0241
vn 0.1470 0.9889 0.0228
vn -0.0000 0.9999 0.0105
vn -0.0000 1.0000 0.0045
vn -0.0000 0.9997 0.0254
vn -0.9969 0.0778 0.0127
vn -1.0000 0.0070 -0.0016
vn -0.9963 0.0857 0.0010
vn -1.0000 0.0012 -0.0005
vn -0.9963 -0.0862 -0.0002
vn -0.9967 -0.0812 -0.0077
vn 0.1766 -0.9843 -0.0030
vn 0.1663 -0.9861 -0.0010
vn 0.0853 -0.9964 -0.0006
vn 0.0906 -0.9959 -0.0030
vn 0.1471 -0.9891 -0.0024
vn 0.0754 -0.9972 -0.0013
vn 0.0016 -1.0000 -0.0002
vn 0.0019 -1.0000 -0.0001
vn 0.1346 -0.9746 -0.1790
vn 0.1575 -0.9832 -0.0924
vn 0.0806 -0.9909 -0.1074
vn 0.0691 -0.9755 -0.2089
vn -0.0017 0.9725 -0.2328
vn -0.0692 0.9769 -0.2020
vn -0.0806 0.9917 -0.1005
vn -0.0019 0.9932 -0.1166
vn -0.1347 0.9758 -0.1722
vn -0.1575 0.9838 -0.0855
vn 0.9976 0.0590 -0.0365
vn 0.9977 0.0658 -0.0179
vn 0.9998 -0.0000 -0.0189
vn 0.9993 0.0001 -0.0368
vn 0.9973 0.0737 -0.0001
vn 0.9973 -0.0737 -0.0007
vn 0.9977 -0.0657 -0.0183
vn 0.9976 -0.0588 -0.0369
vn 0.1347 0.9758 -0.1722
vn 0.0692 0.9769 -0.2020
vn 0.0806 0.9917 -0.1005
vn 0.1575 0.9838 -0.0855
vn 0.0017 0.9725 -0.2328
vn 0.0019 0.9932 -0.1166
vn -0.0806 -0.9909 -0.1074
vn -0.0691 -0.9755 -0.2089
vn -0.1575 -0.9832 -0.0924
vn -0.1346 -0.9746 -0.1790
vn -0.9952 -0.0958 -0.0189
vn -0.9960 -0.0888 -0.0043
vn -1.0000 -0.0031 -0.0020
vn -0.9999 -0.0068 -0.0075
vn -0.9960 0.0894 0.0040
vn -0.9952 0.0968 0.0136
vn -0.0000 0.9931 -0.1176
vn -0.0000 0.9720 -0.2348
vn -0.0015 -1.0000 0.0034
vn -0.0017 -1.0000 0.0018
vn -0.0764 -0.9970 0.0082
vn -0.0711 -0.9972 0.0239
vn -0.1492 -0.9887 0.0130
vn -0.1389 -0.9894 0.0414
vn -0.1388 0.9894 0.0414
vn -0.1491 0.9887 0.0131
vn -0.0763 0.9970 0.0082
vn -0.0710 0.9972 0.0239
vn -0.0017 1.0000 0.0018
vn -0.0015 1.0000 0.0034
vn 0.0020 -1.0000 0.0045
vn 0.0906 -0.9959 0.0044
vn 0.0853 -0.9963 0.0100
vn 0.0019 -0.9999 0.0105
vn 0.1766 -0.9843 0.0042
vn 0.1663 -0.9860 0.0094
vn 0.1470 -0.9889 0.0228
vn 0.0753 -0.9969 0.0240
vn 0.0016 -0.9997 0.0253
vn -0.0000 0.9887 -0.1500
vn -0.0000 0.9622 -0.2724
vn -0.0000 0.9999 -0.0121
vn -0.1766 0.9843 -0.0030
vn -0.1663 0.9861 -0.0010
vn -0.0853 0.9964 -0.0006
vn -0.0906 0.9959 -0.0030
vn -0.1470 0.9891 -0.0024
vn -0.0753 0.9972 -0.0013
vn -0.0016 1.0000 -0.0002
vn -0.0019 1.0000 -0.0001
vn 0.9970 -0.0765 0.0145
vn 1.0000 -0.0082 -0.0017
vn 0.9963 -0.0856 0.0011
vn 1.0000 -0.0013 -0.0006
vn 0.9963 0.0862 -0.0003
vn 0.9967 0.0803 -0.0090
vn -0.0000 -0.9999 0.0105
vn -0.0000 -1.0000 0.0045
vn -0.0000 -0.9997 0.0254
vn -0.0016 -0.9997 0.0253
vn -0.0019 -0.9999 0.0105
vn -0.0020 -1.0000 0.0045
vn -0.1766 -0.9843 0.0042
vn -0.0906 -0.9959 0.0044
vn -0.0853 -0.9963 0.0100
vn -0.1663 -0.9860 0.0094
vn -0.0753 -0.9969 0.0240
vn -0.1470 -0.9889 0.0228
vn -0.9976 -0.0589 -0.0369
vn -0.9977 -0.0657 -0.0180
vn -0.9998 -0.0000 -0.0191
vn -0.9993 -0.0001 -0.0371
vn -0.9973 -0.0737 -0.0001
vn -0.9973 0.0737 -0.0007
vn -0.9977 0.0657 -0.0185
vn -0.9976 0.0587 -0.0373
vn 0.0017 -0.9719 -0.2353
vn 0.0691 -0.9765 -0.2041
vn 0.0806 -0.9916 -0.1015
vn 0.0019 -0.9930 -0.1179
vn 0.1345 -0.9756 -0.1738
vn 0.1574 -0.9838 -0.0863
vn 0.0805 0.9908 -0.1084
vn 0.0691 0.9751 -0.2109
vn 0.0906 0.9959 -0.0030
vn 0.1766 0.9843 -0.0030
vn 0.1574 0.9831 -0.0932
vn 0.1344 0.9743 -0.1806
vn -0.1344 0.9743 -0.1806
vn -0.1574 0.9831 -0.0932
vn -0.0805 0.9908 -0.1084
vn -0.0691 0.9751 -0.2109
vn -0.0000 -0.9929 -0.1189
vn -0.0000 -0.9714 -0.2373
vn -0.0019 -0.9930 -0.1179
vn -0.0017 -0.9719 -0.2353
vn -0.1345 -0.9756 -0.1738
vn -0.0691 -0.9765 -0.2041
vn -0.0806 -0.9916 -0.1015
vn -0.1574 -0.9838 -0.0863
vn 0.0014 -0.9622 -0.2722
vn 0.0669 -0.9627 -0.2622
vn 0.0750 -0.9947 -0.0705
vn 0.0016 -0.9973 -0.0735
vn 0.1305 -0.9566 -0.2605
vn 0.1463 -0.9866 -0.0717
vn 0.9960 -0.0888 -0.0043
vn 1.0000 -0.0031 -0.0020
vn 0.9952 -0.0958 -0.0189
vn 0.9999 -0.0068 -0.0075
vn 0.9952 0.0968 0.0136
vn 0.9960 0.0894 0.0040
vn -0.0000 -0.2363 0.9717
vn -0.0019 0.5007 -0.8656
vn -0.0018 0.4221 -0.9066
vn -0.0000 0.4221 -0.9066
vn -0.0000 0.5007 -0.8656
vn 0.0018 0.4221 -0.9066
vn 0.0019 0.5007 -0.8656
vn -0.0835 -0.4306 0.8987
vn -0.0841 -0.4942 0.8653
vn -0.1629 -0.4208 0.8924
vn -0.1682 -0.4891 0.8559
vn -0.0884 0.4985 -0.8624
vn -0.0836 0.4191 -0.9041
vn -0.1685 0.4930 -0.8535
vn -0.1630 0.4216 -0.8920
vn 0.1682 -0.4891 0.8559
vn 0.1629 -0.4208 0.8924
vn 0.0835 -0.4306 0.8987
vn 0.0841 -0.4942 0.8653
vn -0.9968 -0.0358 0.0713
vn -1.0000 -0.0005 0.0053
vn -0.9967 0.0327 -0.0749
vn 0.9966 -0.0202 0.0805
vn 1.0000 -0.0003 0.0046
vn 0.9965 0.0178 -0.0812
vn 0.1685 0.4930 -0.8535
vn 0.0884 0.4985 -0.8624
vn 0.0836 0.4191 -0.9041
vn 0.1630 0.4216 -0.8920
vn -0.0000 0.4465 0.8948
vn -0.0000 0.5248 0.8512
vn -0.0018 -0.2194 -0.9756
vn -0.0000 -0.2193 -0.9757
vn 0.0018 -0.2194 -0.9756
vn 0.9969 0.0369 0.0698
vn 1.0000 0.0007 0.0064
vn 0.9967 -0.0336 -0.0738
vn -0.9966 0.0202 0.0805
vn -1.0000 0.0003 0.0046
vn -0.9965 -0.0179 -0.0812
vn -0.0813 -0.2188 -0.9724
vn -0.1580 -0.2203 -0.9626
vn 0.0813 -0.2188 -0.9724
vn 0.1580 -0.2203 -0.9626
vn -0.0809 0.2358 0.9684
vn -0.1585 0.2303 0.9601
vn 0.1585 0.2303 0.9601
vn 0.0809 0.2358 0.9684
vn -0.9959 0.0900 0.0016
vn -0.9969 0.0791 0.0006
vn -1.0000 0.0001 0.0001
vn -1.0000 0.0004 0.0004
vn -0.9969 -0.0791 -0.0003
vn -0.9959 -0.0900 -0.0008
vn -0.0000 -1.0000 -0.0000
vn -0.0000 -1.0000 0.0011
vn -0.0000 -1.0000 0.0010
vn 0.0015 -1.0000 0.0034
vn 0.0017 -1.0000 0.0018
vn 0.1389 -0.9894 0.0414
vn 0.1492 -0.9887 0.0130
vn 0.0764 -0.9970 0.0082
vn 0.0711 -0.9972 0.0239
vn 0.1306 0.9565 -0.2608
vn 0.0669 0.9626 -0.2625
vn 0.0750 0.9947 -0.0704
vn 0.1464 0.9866 -0.0716
vn 0.0014 0.9621 -0.2726
vn 0.0016 0.9973 -0.0734
vn 0.9969 0.0791 0.0006
vn 1.0000 0.0001 0.0001
vn 0.9959 0.0900 0.0016
vn 1.0000 0.0004 0.0004
vn 0.9959 -0.0900 -0.0008
vn 0.9969 -0.0791 -0.0003
vn -0.9960 0.0888 -0.0043
vn -1.0000 0.0031 -0.0020
vn -0.9952 0.0958 -0.0189
vn -0.9999 0.0068 -0.0075
vn -0.9952 -0.0967 0.0136
vn -0.9960 -0.0894 0.0040
vn -0.0000 0.9973 -0.0736
vn -0.0000 0.9619 -0.2734
vn 0.0019 1.0000 -0.0001
vn 0.0853 0.9964 -0.0006
vn 0.0016 1.0000 -0.0002
vn 0.0753 0.9972 -0.0013
vn 0.1470 0.9891 -0.0024
vn 0.1663 0.9861 -0.0010
vn -0.0000 1.0000 -0.0000
vn -0.1305 -0.9566 -0.2605
vn -0.0669 -0.9627 -0.2622
vn -0.0750 -0.9947 -0.0705
vn -0.1463 -0.9866 -0.0718
vn -0.0014 -0.9622 -0.2722
vn -0.0016 -0.9973 -0.0735
vn 0.9959 -0.0900 0.0016
vn 0.9969 -0.0791 0.0006
vn 1.0000 -0.0001 0.0001
vn 1.0000 -0.0004 0.0004
vn 0.9969 0.0791 -0.0003
vn 0.9959 0.0901 -0.0008
vn 0.0015 1.0000 0.0034
vn 0.0017 1.0000 0.0018
vn 0.0763 0.9970 0.0082
vn 0.0710 0.9972 0.0239
vn 0.1491 0.9887 0.0131
vn 0.1388 0.9894 0.0414
vn -0.0000 1.0000 0.0011
vn -0.0000 1.0000 0.0010
vn -0.0000 -0.9973 -0.0738
vn -0.0000 -0.9620 -0.2731
vn -0.9969 -0.0791 0.0006
vn -1.0000 -0.0001 0.0001
vn -0.9959 -0.0900 0.0016
vn -1.0000 -0.0004 0.0004
vn -0.9959 0.0901 -0.0008
vn -0.9969 0.0791 -0.0003
vn -1.0000 0.0014 0.0015
vn -0.9945 0.1050 0.0053
vn -0.9944 -0.1054 -0.0027
vn -0.9935 -0.1139 0.0059
vn -1.0000 -0.0096 -0.0013
vn -0.9934 0.1141 -0.0132
vn -1.0000 -0.0005 -0.0070
vn -0.9937 0.1070 -0.0334
vn -0.9940 -0.1082 0.0178
vn -0.0014 -1.0000 -0.0003
vn 0.0014 -1.0000 -0.0003
vn 0.0013 -1.0000 0.0012
vn -0.0000 -1.0000 0.0004
vn -0.0013 -1.0000 0.0012
vn -0.0000 -1.0000 0.0008
vn -0.0014 -1.0000 0.0036
vn 0.0014 -1.0000 0.0036
vn 0.0632 -0.9976 0.0286
vn 0.1234 -0.9911 0.0507
vn 0.0592 -0.9982 0.0088
vn 0.1158 -0.9932 0.0156
vn 0.0645 -0.9979 -0.0038
vn 0.1259 -0.9920 -0.0069
vn -0.0579 0.9236 -0.3789
vn -0.1128 0.9242 -0.3649
vn -0.0012 0.9200 -0.3920
vn -0.0013 0.9905 -0.1379
vn -0.0593 0.9893 -0.1335
vn -0.1147 0.9855 -0.1254
vn -0.0643 0.9955 0.0698
vn -0.1256 0.9898 0.0666
vn -0.0014 0.9973 0.0735
vn 0.9952 0.0958 -0.0189
vn 0.9999 0.0068 -0.0075
vn 1.0000 -0.0005 -0.0070
vn 0.9937 0.1070 -0.0334
vn 0.9952 -0.0967 0.0136
vn 0.9940 -0.1082 0.0178
vn 0.9935 -0.1139 0.0059
vn 1.0000 -0.0096 -0.0013
vn 0.9934 0.1141 -0.0132
vn 1.0000 0.0014 0.0015
vn 0.9945 0.1050 0.0053
vn 0.9944 -0.1054 -0.0027
vn 0.0579 0.9236 -0.3789
vn 0.0012 0.9200 -0.3920
vn 0.1128 0.9242 -0.3649
vn 0.1147 0.9855 -0.1254
vn 0.0593 0.9893 -0.1335
vn 0.0013 0.9905 -0.1379
vn 0.0643 0.9955 0.0698
vn 0.0014 0.9973 0.0735
vn 0.1256 0.9898 0.0666
vn -0.0632 -0.9976 0.0286
vn -0.1234 -0.9911 0.0507
vn -0.1158 -0.9932 0.0156
vn -0.0592 -0.9982 0.0088
vn -0.0645 -0.9979 -0.0038
vn -0.1259 -0.9920 -0.0069
vn -0.0000 0.9194 -0.3934
vn -0.0000 0.9904 -0.1384
vn -0.0000 0.9973 0.0738
vn 1.0000 -0.0014 0.0015
vn 0.9945 -0.1051 0.0053
vn 0.9944 0.1054 -0.0027
vn 0.9935 0.1140 0.0059
vn 1.0000 0.0096 -0.0013
vn 0.9934 -0.1141 -0.0132
vn 1.0000 0.0004 -0.0070
vn 0.9937 -0.1071 -0.0334
vn 0.9940 0.1083 0.0178
vn 0.0014 1.0000 -0.0003
vn -0.0014 1.0000 -0.0003
vn -0.0013 1.0000 0.0012
vn -0.0000 1.0000 0.0004
vn 0.0013 1.0000 0.0012
vn -0.0000 1.0000 0.0008
vn 0.0014 1.0000 0.0036
vn -0.0014 1.0000 0.0036
vn -1.0000 0.0004 -0.0070
vn -0.9937 -0.1071 -0.0334
vn -0.9940 0.1083 0.0178
vn -0.9935 0.1140 0.0059
vn -1.0000 0.0096 -0.0013
vn -0.9934 -0.1141 -0.0132
vn -1.0000 -0.0014 0.0015
vn -0.9945 -0.1051 0.0053
vn -0.9944 0.1054 -0.0027
vn 0.0579 -0.9238 -0.3785
vn 0.1128 -0.9243 -0.3645
vn 0.0012 -0.9201 -0.3916
vn 0.0013 -0.9904 -0.1379
vn 0.0592 -0.9893 -0.1336
vn 0.1146 -0.9855 -0.1254
vn 0.0643 -0.9955 0.0697
vn 0.1256 -0.9899 0.0665
vn 0.0014 -0.9973 0.0733
vn 0.0631 0.9976 0.0286
vn 0.1234 0.9911 0.0506
vn 0.1157 0.9932 0.0156
vn 0.0592 0.9982 0.0088
vn 0.0644 0.9979 -0.0038
vn 0.1258 0.9920 -0.0068
vn -0.0631 0.9976 0.0286
vn -0.1234 0.9911 0.0506
vn -0.0592 0.9982 0.0088
vn -0.1157 0.9932 0.0156
vn -0.0644 0.9979 -0.0038
vn -0.1258 0.9920 -0.0068
vn -0.0000 -0.9195 -0.3930
vn -0.0012 -0.9201 -0.3916
vn -0.0013 -0.9904 -0.1379
vn -0.0000 -0.9904 -0.1384
vn -0.0000 -0.9973 0.0737
vn -0.0014 -0.9973 0.0733
vn -0.0579 -0.9238 -0.3785
vn -0.1128 -0.9243 -0.3646
vn -0.1146 -0.9855 -0.1254
vn -0.0592 -0.9893 -0.1336
vn -0.0643 -0.9955 0.0697
vn -0.1256 -0.9899 0.0665
vn 0.9960 0.0887 -0.0043
vn 1.0000 0.0031 -0.0020
vn 0.9960 -0.0894 0.0040
vt 0.600636 0.750228
vt 0.619950 0.750201
vt 0.619969 0.754978
vt 0.600636 0.755836
vt 0.625000 0.750000
vt 0.625000 0.750685
vt 0.625000 0.751370
vt 0.619969 0.788937
vt 0.600636 0.792352
vt 0.375000 0.500000
vt 0.369192 0.500272
vt 0.370046 0.500031
vt 0.375000 0.500000
vt 0.332648 0.500296
vt 0.336063 0.500037
vt 0.373630 0.500000
vt 0.374315 0.500000
vt 0.375000 0.500000
vt 0.874658 0.500499
vt 0.869149 0.500361
vt 0.870019 0.500075
vt 0.874771 0.500334
vt 0.832648 0.500333
vt 0.836064 0.500042
vt 0.873630 0.500000
vt 0.874315 0.500000
vt 0.875000 0.500000
vt 0.600636 0.957648
vt 0.619969 0.961064
vt 0.619969 0.995022
vt 0.600636 0.994164
vt 0.625000 0.998630
vt 0.625000 0.999315
vt 0.625000 1.000000
vt 0.619969 0.999791
vt 0.600636 0.999772
vt 0.619704 0.750000
vt 0.602225 0.755808
vt 0.620366 0.754954
vt 0.622352 0.750000
vt 0.619968 0.788937
vt 0.625000 0.751370
vt 0.625000 0.750000
vt 0.625000 0.747710
vt 0.625000 0.748855
vt 0.629954 0.748798
vt 0.630813 0.747204
vt 0.625685 0.750000
vt 0.626370 0.750000
vt 0.663937 0.748786
vt 0.667352 0.747161
vt 0.380393 0.750000
vt 0.397842 0.755808
vt 0.442181 0.755808
vt 0.440197 0.750000
vt 0.399429 0.792352
vt 0.442578 0.792352
vt 0.500016 0.792352
vt 0.500015 0.755808
vt 0.500000 0.750000
vt 0.600636 0.957648
vt 0.602225 0.994192
vt 0.620366 0.995046
vt 0.619968 0.961063
vt 0.619704 1.000000
vt 0.622352 1.000000
vt 0.625000 1.000000
vt 0.625000 0.999315
vt 0.625000 0.998630
vt 0.125228 0.747280
vt 0.125209 0.748965
vt 0.125024 0.748991
vt 0.125029 0.747435
vt 0.125000 0.750000
vt 0.125000 0.750000
vt 0.125000 0.750000
vt 0.125000 0.749074
vt 0.125000 0.748147
vt 0.620366 0.999976
vt 0.602225 0.999972
vt 0.874772 0.540553
vt 0.874752 0.505881
vt 0.874949 0.505055
vt 0.874972 0.537340
vt 0.875000 0.500999
vt 0.875000 0.501997
vt 0.332648 0.747232
vt 0.369164 0.747238
vt 0.370022 0.748960
vt 0.336063 0.748959
vt 0.374772 0.747280
vt 0.374809 0.748959
vt 0.375000 0.750000
vt 0.374315 0.750000
vt 0.373630 0.750000
vt 0.832648 0.746872
vt 0.869164 0.746878
vt 0.870022 0.748751
vt 0.836064 0.748750
vt 0.874772 0.746920
vt 0.874791 0.748756
vt 0.875000 0.750000
vt 0.874315 0.750000
vt 0.873630 0.750000
vt 0.375000 0.501778
vt 0.375000 0.500889
vt 0.374981 0.500889
vt 0.375000 0.501778
vt 0.374810 0.501695
vt 0.375000 0.501778
vt 0.625000 0.747710
vt 0.625172 0.748830
vt 0.624946 0.748823
vt 0.625000 0.747710
vt 0.624269 0.749687
vt 0.399429 0.750228
vt 0.380095 0.750203
vt 0.379754 0.749998
vt 0.397842 0.750029
vt 0.375744 0.749748
vt 0.377697 0.750000
vt 0.399429 0.999772
vt 0.442578 0.999772
vt 0.442181 0.999972
vt 0.397842 0.999972
vt 0.500016 0.999772
vt 0.500015 0.999972
vt 0.500000 1.000000
vt 0.440197 1.000000
vt 0.380393 1.000000
vt 0.600636 0.750228
vt 0.557471 0.750228
vt 0.557867 0.750029
vt 0.602225 0.750029
vt 0.500016 0.750228
vt 0.500015 0.750029
vt 0.559852 0.750000
vt 0.399429 0.750229
vt 0.442578 0.750228
vt 0.442578 0.755836
vt 0.399429 0.755836
vt 0.500016 0.750229
vt 0.500016 0.755836
vt 0.500016 0.792352
vt 0.630813 0.746942
vt 0.629973 0.748768
vt 0.667352 0.746872
vt 0.663937 0.748750
vt 0.399429 0.957648
vt 0.397842 0.994192
vt 0.442181 0.994192
vt 0.442578 0.957648
vt 0.500015 0.994192
vt 0.500016 0.957648
vt 0.832648 0.747161
vt 0.836064 0.748786
vt 0.870046 0.748798
vt 0.869192 0.747207
vt 0.873630 0.750000
vt 0.875000 0.750000
vt 0.875000 0.748855
vt 0.875000 0.747710
vt 0.332648 0.747521
vt 0.336063 0.748995
vt 0.370046 0.749008
vt 0.369192 0.747573
vt 0.373630 0.750000
vt 0.374315 0.750000
vt 0.375000 0.750000
vt 0.375000 0.749074
vt 0.375000 0.748147
vt 0.832648 0.540553
vt 0.869164 0.540553
vt 0.869164 0.618681
vt 0.832648 0.618681
vt 0.874772 0.618681
vt 0.874772 0.696914
vt 0.869164 0.696914
vt 0.832648 0.696914
vt 0.399429 0.957648
vt 0.442578 0.957648
vt 0.442578 0.994164
vt 0.399429 0.994164
vt 0.500016 0.957648
vt 0.500016 0.994164
vt 0.500016 0.999772
vt 0.667352 0.500333
vt 0.630851 0.500361
vt 0.629982 0.500075
vt 0.663937 0.500042
vt 0.625343 0.500499
vt 0.625229 0.500334
vt 0.625000 0.500000
vt 0.625685 0.500000
vt 0.626370 0.500000
vt 0.167352 0.500296
vt 0.130851 0.500322
vt 0.129981 0.500067
vt 0.163937 0.500037
vt 0.125343 0.500445
vt 0.125229 0.500297
vt 0.125000 0.500000
vt 0.125685 0.500000
vt 0.126370 0.500000
vt 0.129954 0.749008
vt 0.130808 0.747573
vt 0.125685 0.750000
vt 0.126370 0.750000
vt 0.163937 0.748995
vt 0.167352 0.747521
vt 0.667352 0.500333
vt 0.750000 0.500042
vt 0.750000 0.500333
vt 0.750000 0.500000
vt 0.832648 0.500333
vt 0.163937 0.500037
vt 0.250000 0.500037
vt 0.250000 0.500296
vt 0.250000 0.500000
vt 0.336063 0.500037
vt 0.442578 0.875000
vt 0.399429 0.875000
vt 0.500016 0.957648
vt 0.500016 0.875000
vt 0.442578 0.792352
vt 0.832648 0.540553
vt 0.836063 0.505818
vt 0.750000 0.505818
vt 0.750000 0.540553
vt 0.873630 0.500000
vt 0.663937 0.505818
vt 0.667352 0.540553
vt 0.332648 0.540475
vt 0.336063 0.505726
vt 0.250000 0.505726
vt 0.250000 0.540475
vt 0.373630 0.500000
vt 0.163937 0.505726
vt 0.167352 0.540475
vt 0.600636 0.957648
vt 0.619969 0.961063
vt 0.619969 0.875000
vt 0.600636 0.875000
vt 0.625000 0.875000
vt 0.619969 0.788937
vt 0.600636 0.792352
vt 0.399429 0.957648
vt 0.380076 0.961063
vt 0.380076 0.875000
vt 0.399429 0.875000
vt 0.375000 0.998630
vt 0.375000 0.875000
vt 0.375000 0.751370
vt 0.380076 0.788937
vt 0.399429 0.792352
vt 0.832648 0.746872
vt 0.836064 0.748750
vt 0.750000 0.748750
vt 0.750000 0.746872
vt 0.750000 0.750000
vt 0.663937 0.748750
vt 0.667352 0.746872
vt 0.332648 0.747232
vt 0.250000 0.748959
vt 0.250000 0.747232
vt 0.250000 0.750000
vt 0.163937 0.748959
vt 0.167352 0.747232
vt 0.600636 0.957648
vt 0.557471 0.957648
vt 0.557471 0.875000
vt 0.600636 0.875000
vt 0.500016 0.957648
vt 0.500016 0.792352
vt 0.557471 0.792352
vt 0.600636 0.792352
vt 0.125228 0.747280
vt 0.130836 0.747238
vt 0.129978 0.748960
vt 0.125209 0.748965
vt 0.167352 0.747232
vt 0.836063 0.748786
vt 0.750000 0.748786
vt 0.832648 0.747161
vt 0.750000 0.747161
vt 0.667352 0.747161
vt 0.663937 0.748786
vt 0.832648 0.741240
vt 0.869164 0.741265
vt 0.869164 0.744069
vt 0.832648 0.744052
vt 0.874772 0.741433
vt 0.874772 0.744190
vt 0.874772 0.746920
vt 0.869164 0.746878
vt 0.832648 0.746872
vt 0.832648 0.540553
vt 0.832648 0.618681
vt 0.869192 0.618678
vt 0.869192 0.537340
vt 0.832648 0.696914
vt 0.869192 0.700115
vt 0.875000 0.735329
vt 0.875000 0.618663
vt 0.625228 0.540553
vt 0.630836 0.540553
vt 0.630832 0.619481
vt 0.625209 0.622682
vt 0.667352 0.540553
vt 0.667352 0.618680
vt 0.667352 0.696914
vt 0.630813 0.700115
vt 0.625000 0.735329
vt 0.832648 0.618680
vt 0.750000 0.618681
vt 0.750000 0.540553
vt 0.832648 0.696914
vt 0.750000 0.696914
vt 0.667352 0.696914
vt 0.667352 0.618680
vt 0.874791 0.748756
vt 0.874976 0.748781
vt 0.875000 0.750000
vt 0.874772 0.746920
vt 0.874972 0.747068
vt 0.875000 0.748855
vt 0.625000 0.501997
vt 0.625000 0.618663
vt 0.630808 0.618678
vt 0.630808 0.537340
vt 0.625000 0.735329
vt 0.630813 0.700115
vt 0.667352 0.696914
vt 0.667352 0.618681
vt 0.667352 0.540553
vt 0.625000 0.500000
vt 0.625000 0.500999
vt 0.629954 0.505015
vt 0.663937 0.505818
vt 0.869160 0.505865
vt 0.832648 0.505860
vt 0.874752 0.505881
vt 0.874772 0.540553
vt 0.869164 0.540553
vt 0.625248 0.505881
vt 0.625051 0.505055
vt 0.625228 0.540553
vt 0.625029 0.537340
vt 0.630840 0.505865
vt 0.625248 0.505881
vt 0.667352 0.500333
vt 0.667352 0.505860
vt 0.836063 0.505818
vt 0.870046 0.505015
vt 0.875000 0.500000
vt 0.125228 0.741850
vt 0.125228 0.744606
vt 0.125029 0.744907
vt 0.125029 0.742236
vt 0.125000 0.745342
vt 0.125000 0.742537
vt 0.832648 0.500333
vt 0.832648 0.505860
vt 0.750000 0.505860
vt 0.750000 0.500333
vt 0.667352 0.505860
vt 0.832648 0.742397
vt 0.832648 0.744883
vt 0.869192 0.744889
vt 0.869192 0.742375
vt 0.875000 0.744918
vt 0.875000 0.742126
vt 0.125000 0.742537
vt 0.130808 0.745306
vt 0.130808 0.742790
vt 0.167352 0.745298
vt 0.167352 0.742813
vt 0.332648 0.540475
vt 0.369187 0.537251
vt 0.369168 0.617975
vt 0.332648 0.618782
vt 0.375000 0.501778
vt 0.374791 0.614750
vt 0.374772 0.697221
vt 0.369164 0.697221
vt 0.332648 0.697221
vt 0.336063 0.748995
vt 0.250000 0.748995
vt 0.250000 0.750000
vt 0.332648 0.747521
vt 0.250000 0.747521
vt 0.167352 0.747521
vt 0.163937 0.748995
vt 0.125000 0.501778
vt 0.125000 0.618759
vt 0.130808 0.618778
vt 0.130808 0.537251
vt 0.125000 0.735741
vt 0.130808 0.700431
vt 0.167352 0.697221
vt 0.167352 0.618782
vt 0.167352 0.540475
vt 0.374809 0.748959
vt 0.375051 0.748965
vt 0.374772 0.747280
vt 0.374971 0.747435
vt 0.375000 0.749074
vt 0.332648 0.618782
vt 0.250000 0.618782
vt 0.332648 0.697221
vt 0.250000 0.697221
vt 0.167352 0.697221
vt 0.167352 0.618782
vt 0.125228 0.540475
vt 0.130836 0.540476
vt 0.130836 0.618782
vt 0.125228 0.618782
vt 0.167352 0.618782
vt 0.167352 0.697221
vt 0.130836 0.697221
vt 0.125228 0.697221
vt 0.125248 0.505782
vt 0.125051 0.504956
vt 0.125228 0.540475
vt 0.125029 0.537251
vt 0.125000 0.500889
vt 0.369192 0.504951
vt 0.332648 0.505763
vt 0.336063 0.505726
vt 0.370027 0.504920
vt 0.374315 0.500000
vt 0.369187 0.537251
vt 0.374810 0.501695
vt 0.125000 0.500000
vt 0.129954 0.504920
vt 0.163937 0.505726
vt 0.332648 0.500296
vt 0.332648 0.505763
vt 0.250000 0.505763
vt 0.250000 0.500296
vt 0.167352 0.505763
vt 0.130851 0.500322
vt 0.130840 0.505768
vt 0.125248 0.505782
vt 0.167352 0.505763
vt 0.130836 0.540475
vt 0.332648 0.741657
vt 0.369164 0.741681
vt 0.369164 0.744485
vt 0.332648 0.744467
vt 0.374772 0.741849
vt 0.374772 0.744606
vt 0.374772 0.747280
vt 0.374772 0.744606
vt 0.374971 0.744907
vt 0.374772 0.741849
vt 0.374971 0.742236
vt 0.375000 0.742536
vt 0.375000 0.745342
vt 0.399429 0.957648
vt 0.399429 0.875000
vt 0.399429 0.792352
vt 0.375000 0.998630
vt 0.380076 0.961064
vt 0.380076 0.875000
vt 0.399429 0.957648
vt 0.375000 0.751370
vt 0.380076 0.961064
vt 0.380076 0.995022
vt 0.375000 0.999315
vt 0.380076 0.999791
vt 0.375000 1.000000
vt 0.375000 0.999315
vt 0.379680 0.995046
vt 0.375000 1.000000
vt 0.377697 1.000000
vt 0.380095 0.750203
vt 0.380076 0.754978
vt 0.375000 0.750685
vt 0.399429 0.750228
vt 0.399429 0.792352
vt 0.380076 0.788937
vt 0.379680 0.999976
vt 0.375000 1.000000
vt 0.442578 0.750228
vt 0.442181 0.750029
vt 0.379679 0.754954
vt 0.377697 0.750000
vt 0.619968 0.961064
vt 0.619968 0.875000
vt 0.600636 0.875000
vt 0.619968 0.788937
vt 0.557471 0.957648
vt 0.600636 0.875000
vt 0.600636 0.792352
vt 0.557471 0.792352
vt 0.620292 0.749992
vt 0.557471 0.999772
vt 0.557867 0.999972
vt 0.559852 1.000000
vt 0.557867 0.994192
vt 0.557471 0.957648
vt 0.557867 0.755808
vt 0.557471 0.994164
vt 0.600636 0.957648
vt 0.600636 0.994164
vt 0.600636 0.999772
vt 0.557471 0.999772
vt 0.557471 0.750228
vt 0.557471 0.755836
vt 0.600636 0.750229
vt 0.557471 0.792352
vt 0.874772 0.696914
vt 0.874772 0.618681
vt 0.874972 0.618678
vt 0.874972 0.700115
vt 0.875000 0.618663
vt 0.875000 0.735329
vt 0.832648 0.696914
vt 0.750000 0.618681
vt 0.750000 0.696914
vt 0.832648 0.540553
vt 0.750000 0.540553
vt 0.667352 0.618681
vt 0.667352 0.696914
vt 0.832648 0.747161
vt 0.832648 0.744883
vt 0.750000 0.744883
vt 0.750000 0.747161
vt 0.832648 0.742397
vt 0.750000 0.742397
vt 0.667352 0.742397
vt 0.667352 0.744883
vt 0.667352 0.747161
vt 0.625228 0.742205
vt 0.625209 0.744808
vt 0.630832 0.744878
vt 0.630836 0.742373
vt 0.667352 0.744883
vt 0.667352 0.742397
vt 0.625000 0.740390
vt 0.630808 0.741170
vt 0.630808 0.744051
vt 0.625000 0.744050
vt 0.667352 0.741240
vt 0.667352 0.744052
vt 0.625209 0.622682
vt 0.625024 0.622679
vt 0.625000 0.735329
vt 0.625000 0.735329
vt 0.625000 0.618663
vt 0.874772 0.744190
vt 0.874972 0.744491
vt 0.874772 0.741433
vt 0.874972 0.741820
vt 0.875000 0.744918
vt 0.832648 0.741240
vt 0.832648 0.744052
vt 0.750000 0.744052
vt 0.750000 0.741240
vt 0.832648 0.746872
vt 0.750000 0.746872
vt 0.667352 0.746872
vt 0.667352 0.744052
vt 0.332648 0.618782
vt 0.369192 0.618778
vt 0.332648 0.697221
vt 0.369192 0.700431
vt 0.375000 0.735741
vt 0.375000 0.618759
vt 0.332648 0.697221
vt 0.332648 0.618782
vt 0.250000 0.618782
vt 0.250000 0.697221
vt 0.167352 0.618782
vt 0.125228 0.741850
vt 0.130836 0.741681
vt 0.130836 0.744485
vt 0.125228 0.744606
vt 0.167352 0.741657
vt 0.167352 0.744467
vt 0.167352 0.747232
vt 0.130836 0.747238
vt 0.125228 0.747280
vt 0.374772 0.697221
vt 0.374791 0.614750
vt 0.374976 0.614747
vt 0.374971 0.700431
vt 0.375000 0.618759
vt 0.375000 0.735741
vt 0.332648 0.742813
vt 0.332648 0.745298
vt 0.369192 0.745305
vt 0.369192 0.742790
vt 0.375000 0.742536
vt 0.332648 0.747521
vt 0.332648 0.745298
vt 0.250000 0.745298
vt 0.250000 0.747521
vt 0.332648 0.742813
vt 0.250000 0.742813
vt 0.167352 0.742813
vt 0.167352 0.745298
vt 0.332648 0.741657
vt 0.332648 0.744467
vt 0.250000 0.744467
vt 0.250000 0.741657
vt 0.332648 0.747232
vt 0.250000 0.747232
vt 0.167352 0.747232
vt 0.167352 0.744467
vt 0.167352 0.741657
vt 0.125228 0.618782
vt 0.125029 0.618778
vt 0.125228 0.697221
vt 0.125029 0.700431
vt 0.125000 0.735741
vt 0.874772 0.696914
vt 0.874972 0.700115
vt 0.874972 0.732750
vt 0.874772 0.731941
vt 0.875000 0.736750
vt 0.875000 0.738171
vt 0.874972 0.738203
vt 0.874772 0.738116
vt 0.874972 0.739798
vt 0.874772 0.739513
vt 0.875000 0.740149
vt 0.874772 0.741433
vt 0.832648 0.696914
vt 0.750000 0.696914
vt 0.750000 0.731971
vt 0.832648 0.731972
vt 0.667352 0.731972
vt 0.667352 0.738357
vt 0.750000 0.738357
vt 0.832648 0.738357
vt 0.750000 0.740206
vt 0.832648 0.740206
vt 0.667352 0.740206
vt 0.625228 0.742205
vt 0.630836 0.742373
vt 0.630836 0.740188
vt 0.625228 0.740067
vt 0.667352 0.738357
vt 0.630836 0.738351
vt 0.625228 0.738308
vt 0.625228 0.738308
vt 0.630836 0.738351
vt 0.630832 0.732771
vt 0.625209 0.735967
vt 0.667352 0.738357
vt 0.667352 0.731971
vt 0.869164 0.741265
vt 0.869164 0.739392
vt 0.874772 0.739513
vt 0.832648 0.741240
vt 0.832648 0.739374
vt 0.832648 0.738067
vt 0.869164 0.738073
vt 0.869164 0.731936
vt 0.874772 0.731941
vt 0.832648 0.731935
vt 0.832648 0.696914
vt 0.869164 0.696914
vt 0.874772 0.696914
vt 0.625029 0.741724
vt 0.625029 0.739757
vt 0.625000 0.739281
vt 0.625029 0.738215
vt 0.625000 0.738171
vt 0.625024 0.736757
vt 0.625000 0.736750
vt 0.625000 0.735329
vt 0.625000 0.735329
vt 0.667352 0.741240
vt 0.630808 0.741170
vt 0.630808 0.739358
vt 0.667352 0.739374
vt 0.630808 0.738076
vt 0.667352 0.738067
vt 0.630808 0.732738
vt 0.667352 0.731935
vt 0.625000 0.736750
vt 0.630813 0.700115
vt 0.667352 0.696914
vt 0.832648 0.742397
vt 0.869192 0.742375
vt 0.869192 0.740196
vt 0.832648 0.740206
vt 0.875000 0.740149
vt 0.869192 0.738341
vt 0.832648 0.738357
vt 0.869192 0.732768
vt 0.832648 0.731971
vt 0.832648 0.696914
vt 0.750000 0.741240
vt 0.750000 0.739374
vt 0.667352 0.741240
vt 0.667352 0.739374
vt 0.667352 0.738067
vt 0.750000 0.738067
vt 0.750000 0.731935
vt 0.667352 0.731935
vt 0.667352 0.696914
vt 0.750000 0.696914
vt 0.374971 0.700431
vt 0.374971 0.733151
vt 0.374772 0.732340
vt 0.375000 0.737162
vt 0.375000 0.738583
vt 0.374971 0.738614
vt 0.374772 0.738528
vt 0.374971 0.740210
vt 0.374772 0.739925
vt 0.375000 0.740560
vt 0.374772 0.741849
vt 0.332648 0.697221
vt 0.250000 0.697221
vt 0.250000 0.732370
vt 0.332648 0.732370
vt 0.167352 0.732370
vt 0.167352 0.738768
vt 0.250000 0.738768
vt 0.332648 0.738768
vt 0.250000 0.740618
vt 0.332648 0.740618
vt 0.167352 0.740618
vt 0.167352 0.742813
vt 0.250000 0.742813
vt 0.332648 0.742813
vt 0.125029 0.740210
vt 0.125228 0.739925
vt 0.125000 0.740560
vt 0.125000 0.738583
vt 0.125029 0.738614
vt 0.125228 0.738528
vt 0.125029 0.733151
vt 0.125228 0.732340
vt 0.125000 0.737162
vt 0.125029 0.700431
vt 0.125228 0.697221
vt 0.374772 0.741849
vt 0.369164 0.741681
vt 0.369164 0.739804
vt 0.374772 0.739925
vt 0.332648 0.741657
vt 0.332648 0.739787
vt 0.332648 0.738479
vt 0.369164 0.738485
vt 0.369164 0.732335
vt 0.374772 0.732340
vt 0.332648 0.732334
vt 0.332648 0.697221
vt 0.369164 0.697221
vt 0.374772 0.697221
vt 0.369192 0.742790
vt 0.369192 0.740608
vt 0.332648 0.740618
vt 0.369192 0.738753
vt 0.369192 0.733169
vt 0.332648 0.732370
vt 0.375000 0.737162
vt 0.369192 0.700431
vt 0.130808 0.740608
vt 0.130808 0.738753
vt 0.130808 0.733169
vt 0.125000 0.737162
vt 0.167352 0.732370
vt 0.250000 0.741657
vt 0.250000 0.739787
vt 0.167352 0.739787
vt 0.167352 0.738479
vt 0.250000 0.738479
vt 0.250000 0.732334
vt 0.167352 0.732334
vt 0.130836 0.741681
vt 0.130836 0.739804
vt 0.125228 0.738528
vt 0.130836 0.738485
vt 0.130836 0.732335
vt 0.125228 0.732340
vt 0.125228 0.697221
vt 0.625024 0.744520
vt 0.625029 0.741724
vt 0.625000 0.747710
s 1
usemtl cover
f 82/1/1 278/2/2 405/3/3 292/4/4
f 278/2/2 6/5/5 222/6/6 405/3/3
f 405/3/3 222/6/6 38/7/7 214/8/8
f 292/4/4 405/3/3 214/8/8 88/9/9
f 7/10/10 218/11/11 406/12/12 168/13/13
f 218/11/11 31/14/14 192/15/15 406/12/12
f 406/12/12 192/15/15 42/16/16 220/17/17
f 168/13/13 406/12/12 220/17/17 17/18/18
f 4/19/19 224/20/20 407/21/21 165/22/22
f 224/20/20 33/23/23 188/24/24 407/21/21
f 407/21/21 188/24/24 44/25/25 226/26/26
f 165/22/22 407/21/21 226/26/26 14/27/27
f 87/28/28 283/29/29 408/30/30 291/31/31
f 283/29/29 37/32/32 225/33/33 408/30/30
f 408/30/30 225/33/33 2/34/34 138/35/35
f 291/31/31 408/30/30 138/35/35 81/36/36
f 84/37/37 290/38/38 409/39/39 280/40/40
f 290/38/38 86/9/41 282/41/42 409/39/39
f 409/39/39 282/41/42 47/42/43 231/6/44
f 280/40/40 409/39/39 231/6/44 16/43/45
f 27/44/46 156/45/47 410/46/48 149/47/49
f 156/45/47 16/43/50 231/48/51 410/46/48
f 410/46/48 231/48/51 47/49/52 199/50/53
f 149/47/49 410/46/48 199/50/53 25/51/54
f 75/52/55 276/53/56 411/54/57 263/55/58
f 276/53/56 78/56/59 266/57/60 411/54/57
f 411/54/57 266/57/60 50/58/61 233/59/62
f 263/55/58 411/54/57 233/59/62 20/60/63
f 85/61/64 289/62/65 412/63/66 202/64/67
f 289/62/65 83/65/68 151/66/69 412/63/66
f 412/63/66 151/66/69 12/67/70 232/68/71
f 202/64/67 412/63/66 232/68/71 48/69/72
f 57/70/73 137/71/74 413/72/75 248/73/76
f 137/71/74 1/74/77 162/75/78 413/72/75
f 413/72/75 162/75/78 11/76/79 150/77/80
f 248/73/76 413/72/75 150/77/80 59/78/81
f 81/36/82 138/35/83 414/79/84 288/80/85
f 138/35/83 2/34/86 163/67/87 414/79/84
f 414/79/84 163/67/87 12/67/88 151/66/89
f 288/80/85 414/79/84 151/66/89 83/65/90
f 22/81/91 139/82/92 415/83/93 236/84/94
f 139/82/92 4/19/95 165/22/96 415/83/93
f 415/83/93 165/22/96 14/27/97 152/85/98
f 236/84/94 415/83/93 152/85/98 21/86/99
f 63/87/100 247/88/101 416/89/102 211/90/103
f 247/88/101 58/91/104 237/92/105 416/89/102
f 416/89/102 237/92/105 5/93/106 219/94/107
f 211/90/103 416/89/102 219/94/107 36/95/108
f 24/96/109 153/97/110 417/98/111 208/99/112
f 153/97/110 30/100/113 178/101/114 417/98/111
f 417/98/111 178/101/114 2/102/115 225/103/116
f 208/99/112 417/98/111 225/103/116 37/104/117
f 65/105/118 142/106/119 418/107/120 260/108/121
f 142/106/119 7/18/122 168/13/123 418/107/120
f 418/107/120 168/13/123 17/10/124 155/109/125
f 260/108/121 418/107/120 155/109/125 66/110/126
f 29/111/127 143/112/128 419/113/129 176/114/130
f 143/112/128 6/5/131 167/115/132 419/113/129
f 419/113/129 167/115/132 16/5/133 156/45/134
f 176/114/130 419/113/129 156/45/134 27/114/135
f 73/116/136 144/117/137 420/118/138 275/119/139
f 144/117/137 5/93/140 166/120/141 420/118/138
f 420/118/138 166/120/141 15/93/142 157/121/143
f 275/119/139 420/118/138 157/121/143 75/52/144
f 74/122/145 147/123/146 421/124/147 274/125/148
f 147/123/146 9/126/149 170/127/150 421/124/147
f 421/124/147 170/127/150 19/128/151 160/129/152
f 274/125/148 421/124/147 160/129/152 76/130/153
f 82/131/154 148/132/155 422/133/156 287/134/157
f 148/132/155 10/135/158 171/136/159 422/133/156
f 422/133/156 171/136/159 20/60/160 161/137/161
f 287/134/157 422/133/156 161/137/161 84/37/162
f 73/138/163 261/139/164 423/140/165 273/141/166
f 261/139/164 10/142/167 227/143/168 423/140/165
f 423/140/165 227/143/168 39/144/169 207/57/170
f 273/141/166 423/140/165 207/57/170 80/56/171
f 29/111/172 181/145/173 424/146/174 143/112/175
f 181/145/173 23/147/176 158/148/177 424/146/174
f 424/146/174 158/148/177 38/49/178 222/48/179
f 143/112/175 424/146/174 222/48/179 6/5/180
f 77/149/181 272/150/182 425/151/183 194/152/184
f 272/150/182 76/130/185 160/129/186 425/151/183
f 425/151/183 160/129/186 19/128/187 234/153/188
f 194/152/184 425/151/183 234/153/188 49/154/189
f 26/155/190 159/156/191 426/157/192 154/158/193
f 159/156/191 48/159/194 232/103/195 426/157/192
f 426/157/192 232/103/195 12/160/196 182/161/197
f 154/158/193 426/157/192 182/161/197 28/162/198
f 61/163/199 239/164/200 427/165/201 245/166/202
f 239/164/200 45/167/203 230/168/204 427/165/201
f 427/165/201 230/168/204 15/169/205 238/170/206
f 245/166/202 427/165/201 238/170/206 60/171/207
f 52/172/208 141/173/209 428/174/210 386/175/211
f 141/173/209 22/81/212 383/176/213 428/174/210
f 428/174/210 383/176/213 111/177/214 316/178/215
f 386/175/211 428/174/210 316/178/215 96/179/216
f 79/180/217 267/181/218 429/182/219 271/183/220
f 267/181/218 40/184/221 228/185/222 429/182/219
f 429/182/219 228/185/222 9/186/223 147/123/224
f 271/183/220 429/182/219 147/123/224 74/122/225
f 34/187/226 221/188/227 430/189/228 186/190/229
f 221/188/227 8/191/230 169/192/231 430/189/228
f 430/189/228 169/192/231 18/193/232 223/194/233
f 186/190/229 430/189/228 223/194/233 43/195/234
f 32/196/235 215/197/236 431/198/237 190/199/238
f 215/197/236 3/200/239 164/201/240 431/198/237
f 431/198/237 164/201/240 13/202/241 217/203/242
f 190/199/238 431/198/237 217/203/242 41/204/243
f 59/78/244 150/77/245 432/205/246 244/206/247
f 150/77/245 11/76/248 229/207/249 432/205/246
f 432/205/246 229/207/249 46/208/250 201/209/251
f 244/206/247 432/205/246 201/209/251 62/210/252
f 34/211/226 186/190/229 433/212/253 185/213/254
f 186/190/229 43/195/234 187/214/255 433/212/253
f 433/212/253 187/214/255 44/25/25 188/24/24
f 185/213/254 433/212/253 188/24/24 33/215/23
f 32/196/235 190/216/238 434/217/256 189/218/257
f 190/216/238 41/204/243 191/219/258 434/217/256
f 434/217/256 191/219/258 42/16/16 192/220/15
f 189/218/257 434/217/256 192/220/15 31/14/14
f 77/149/181 194/181/184 435/221/259 270/222/260
f 194/181/184 49/223/189 195/224/261 435/221/259
f 435/221/259 195/224/261 50/144/61 266/225/60
f 270/222/260 435/221/259 266/225/60 78/56/59
f 55/226/262 198/227/263 436/228/264 140/229/265
f 198/227/263 44/230/266 187/214/267 436/228/264
f 436/228/264 187/214/267 43/195/268 145/231/269
f 140/229/265 436/228/264 145/231/269 54/232/270
f 67/233/271 200/234/272 437/235/273 259/236/274
f 200/234/272 42/237/275 191/219/276 437/235/273
f 437/235/273 191/219/276 41/204/277 251/238/278
f 259/236/274 437/235/273 251/238/278 71/239/279
f 85/240/64 202/241/67 438/242/280 286/243/281
f 202/241/67 48/69/72 197/244/282 438/242/280
f 438/242/280 197/244/282 47/42/43 282/245/42
f 286/243/281 438/242/280 282/245/42 86/246/41
f 79/247/217 205/248/283 439/249/284 269/250/285
f 205/248/283 35/251/286 206/252/287 439/249/284
f 439/249/284 206/252/287 36/253/288 268/254/289
f 269/250/285 439/249/284 268/254/289 80/255/171
f 24/256/109 208/257/112 440/258/290 180/259/291
f 208/257/112 37/104/117 209/260/292 440/258/290
f 440/258/290 209/260/292 38/49/178 158/261/177
f 180/259/291 440/258/290 158/261/177 23/262/176
f 63/263/100 211/90/103 441/264/293 242/265/294
f 211/90/103 36/95/108 206/266/295 441/264/293
f 441/264/293 206/266/295 35/208/296 240/267/297
f 242/265/294 441/264/293 240/267/297 64/268/298
f 87/269/28 213/270/299 442/271/300 285/272/301
f 213/270/299 40/273/221 204/224/302 442/271/300
f 442/271/300 204/224/302 39/274/169 284/275/303
f 285/272/301 442/271/300 284/275/303 88/276/9
f 57/277/304 241/278/305 443/279/306 137/280/307
f 241/278/305 64/281/298 240/267/297 443/279/306
f 443/279/306 240/267/297 35/208/296 216/207/308
f 137/280/307 443/279/306 216/207/308 1/74/309
f 48/159/194 159/282/191 444/283/310 197/260/311
f 159/282/191 26/284/190 177/285/312 444/283/310
f 444/283/310 177/285/312 25/286/54 199/287/53
f 197/260/311 444/283/310 199/287/53 47/49/52
f 95/288/313 312/289/314 445/290/315 385/291/316
f 312/289/314 110/292/317 381/293/318 445/290/315
f 445/290/315 381/293/318 30/294/113 153/295/110
f 385/291/316 445/290/315 153/295/110 24/296/109
f 55/297/262 379/298/319 446/299/320 172/300/321
f 379/298/319 108/301/322 329/302/323 446/299/320
f 446/299/320 329/302/323 92/303/324 380/304/325
f 172/300/321 446/299/320 380/304/325 21/86/326
f 51/305/327 179/306/328 447/307/329 375/308/330
f 179/306/328 56/309/331 376/310/332 447/307/329
f 447/307/329 376/310/332 101/311/333 326/312/334
f 375/308/330 447/307/329 326/312/334 89/313/335
f 52/172/208 386/314/211 448/315/336 235/316/337
f 386/314/211 96/317/216 332/318/338 448/315/336
f 448/315/336 332/318/338 101/319/333 376/320/332
f 235/316/337 448/315/336 376/320/332 56/232/331
f 2/102/86 178/321/339 449/322/340 163/323/87
f 178/321/339 30/324/341 175/325/342 449/322/340
f 449/322/340 175/325/342 28/162/343 182/326/344
f 163/323/87 449/322/340 182/326/344 12/160/88
f 53/327/345 377/328/346 450/329/347 173/330/348
f 377/328/346 98/331/349 311/332/350 450/329/347
f 450/329/347 311/332/350 104/333/351 388/334/352
f 173/330/348 450/329/347 388/334/352 54/335/270
f 18/336/353 174/337/354 451/338/355 223/194/356
f 174/337/354 53/327/345 173/330/348 451/338/355
f 451/338/355 173/330/348 54/335/270 145/339/269
f 223/194/356 451/338/355 145/339/269 43/195/268
f 33/215/357 224/20/358 452/340/359 183/341/360
f 224/20/358 4/19/361 139/342/362 452/340/359
f 452/340/359 139/342/362 22/343/212 141/344/209
f 183/341/360 452/340/359 141/344/209 52/297/208
f 8/191/363 146/345/364 453/346/365 169/192/366
f 146/345/364 51/347/367 184/348/121 453/346/365
f 453/346/365 184/348/121 53/327/368 174/337/369
f 169/192/366 453/346/365 174/337/369 18/193/370
f 8/191/371 221/188/372 454/349/373 146/350/374
f 221/188/372 34/351/375 210/352/376 454/349/373
f 454/349/373 210/352/376 56/309/331 179/306/328
f 146/350/374 454/349/373 179/306/328 51/305/327
f 44/230/266 198/353/263 455/354/377 226/26/378
f 198/353/263 55/297/262 172/300/321 455/354/377
f 455/354/377 172/300/321 21/86/326 152/85/379
f 226/26/378 455/354/377 152/85/379 14/355/380
f 114/356/381 389/357/382 456/358/383 348/359/384
f 389/357/382 57/70/73 248/73/76 456/358/383
f 456/358/383 248/73/76 59/78/81 390/360/385
f 348/359/384 456/358/383 390/360/385 116/361/386
f 33/362/357 183/363/360 457/364/387 185/365/388
f 183/363/360 52/172/208 235/316/337 457/364/387
f 457/364/387 235/316/337 56/232/331 210/366/376
f 185/365/388 457/364/387 210/366/376 34/211/375
f 107/367/389 384/368/390 458/369/391 327/370/392
f 384/368/390 26/155/190 154/158/193 458/369/391
f 458/369/391 154/158/193 28/162/198 382/371/393
f 327/370/392 458/369/391 382/371/393 93/372/394
f 116/373/395 390/360/396 459/374/397 362/375/398
f 390/360/396 59/78/244 244/206/247 459/374/397
f 459/374/397 244/206/247 62/210/252 395/376/399
f 362/375/398 459/374/397 395/376/399 120/377/400
f 72/378/401 254/379/402 460/380/403 401/381/404
f 254/379/402 65/382/405 402/383/406 460/380/403
f 460/380/403 402/383/406 126/384/407 358/385/408
f 401/381/404 460/380/403 358/385/408 123/386/409
f 45/167/203 239/387/200 461/388/410 193/389/411
f 239/387/200 61/390/199 243/391/412 461/388/410
f 461/388/410 243/391/412 62/392/252 201/393/251
f 193/389/411 461/388/410 201/393/251 46/208/250
f 70/394/413 393/395/414 462/396/415 256/397/416
f 393/395/414 117/398/417 364/399/418 462/396/415
f 462/396/415 364/399/418 119/400/419 396/401/420
f 256/397/416 462/396/415 396/401/420 71/402/279
f 5/93/140 237/403/421 463/404/422 166/120/141
f 237/403/421 58/405/423 246/406/424 463/404/422
f 463/404/422 246/406/424 60/171/425 238/407/426
f 166/120/141 463/404/422 238/407/426 15/93/142
f 72/233/401 401/408/404 464/409/427 257/236/428
f 401/408/404 123/410/409 369/411/429 464/409/427
f 464/409/427 369/411/429 135/412/430 392/413/431
f 257/236/428 464/409/427 392/413/431 68/402/432
f 69/414/433 258/415/434 465/416/435 391/417/436
f 258/415/434 68/239/432 392/418/431 465/416/435
f 465/416/435 392/418/431 135/419/430 372/420/437
f 391/417/436 465/416/435 372/420/437 113/421/438
f 3/200/439 249/422/440 466/423/441 164/201/442
f 249/422/440 69/424/443 253/425/94 466/423/441
f 466/423/441 253/425/94 70/394/444 250/426/445
f 164/201/442 466/423/441 250/426/445 13/202/446
f 31/14/447 218/11/448 467/427/449 252/428/450
f 218/11/448 7/10/451 142/106/452 467/427/449
f 467/427/449 142/106/452 65/382/405 254/379/402
f 252/428/450 467/427/449 254/379/402 72/378/401
f 42/237/275 200/429/272 468/430/453 220/431/454
f 200/429/272 67/378/271 255/432/455 468/430/453
f 468/430/453 255/432/455 66/110/456 155/433/457
f 220/431/454 468/430/453 155/433/457 17/10/458
f 13/434/459 250/426/460 469/435/461 217/203/462
f 250/426/460 70/394/413 256/397/416 469/435/461
f 469/435/461 256/397/416 71/402/279 251/436/278
f 217/203/462 469/435/461 251/436/278 41/204/277
f 31/437/447 252/438/450 470/439/463 189/440/464
f 252/438/450 72/233/401 257/236/428 470/439/463
f 470/439/463 257/236/428 68/402/432 212/441/465
f 189/440/464 470/439/463 212/441/465 32/196/466
f 3/200/467 215/442/468 471/443/469 249/444/470
f 215/442/468 32/196/466 212/445/465 471/443/469
f 471/443/469 212/445/465 68/239/432 258/446/434
f 249/444/470 471/443/469 258/446/434 69/414/433
f 122/447/471 354/448/472 472/449/473 399/450/474
f 354/448/472 125/451/475 400/452/476 472/449/473
f 472/449/473 400/452/476 58/453/104 247/88/101
f 399/450/474 472/449/473 247/88/101 63/263/100
f 58/405/423 400/454/477 473/455/478 246/406/424
f 400/454/477 125/456/479 339/457/480 473/455/478
f 473/455/478 339/457/480 129/458/481 404/459/482
f 246/406/424 473/455/478 404/459/482 60/171/425
f 40/273/221 267/181/218 474/221/483 204/224/302
f 267/181/218 79/460/217 269/461/285 474/221/483
f 474/221/483 269/461/285 80/462/171 207/225/170
f 204/224/302 474/221/483 207/225/170 39/274/169
f 46/463/484 265/464/485 475/465/486 193/252/487
f 265/464/485 77/466/181 270/461/260 475/465/486
f 475/465/486 270/461/260 78/255/59 196/254/488
f 193/252/487 475/465/486 196/254/488 45/467/489
f 35/251/286 205/468/283 476/469/490 216/470/491
f 205/468/283 79/247/217 271/183/220 476/469/490
f 476/469/490 271/183/220 74/122/225 262/471/492
f 216/470/491 476/469/490 262/471/492 1/472/493
f 46/463/484 229/473/494 477/474/495 265/468/485
f 229/473/494 11/475/496 264/476/497 477/474/495
f 477/474/495 264/476/497 76/130/185 272/150/182
f 265/468/485 477/474/495 272/150/182 77/149/181
f 5/93/498 144/477/499 478/478/500 219/479/501
f 144/477/499 73/480/163 273/141/166 478/478/500
f 478/478/500 273/141/166 80/481/171 268/482/289
f 219/479/501 478/478/500 268/482/289 36/253/288
f 1/472/77 262/471/502 479/483/503 162/484/78
f 262/471/502 74/122/145 274/125/148 479/483/503
f 479/483/503 274/125/148 76/130/153 264/476/504
f 162/484/78 479/483/503 264/476/504 11/475/79
f 10/135/158 261/485/505 480/486/506 171/136/159
f 261/485/505 73/116/136 275/119/139 480/486/506
f 480/486/506 275/119/139 75/52/144 263/55/507
f 171/136/159 480/486/506 263/55/507 20/60/160
f 15/169/508 230/479/509 481/487/510 157/488/511
f 230/479/509 45/467/489 196/254/488 481/487/510
f 481/487/510 196/254/488 78/56/59 276/53/56
f 157/488/511 481/487/510 276/53/56 75/52/55
f 37/32/32 283/489/29 482/490/512 209/244/513
f 283/489/29 87/28/28 285/491/301 482/490/512
f 482/490/512 285/491/301 88/246/9 214/492/8
f 209/244/513 482/490/512 214/492/8 38/7/7
f 49/223/189 281/493/514 483/271/515 195/224/261
f 281/493/514 85/240/64 286/494/281 483/271/515
f 483/271/515 286/494/281 86/495/41 203/496/516
f 195/224/261 483/271/515 203/496/516 50/144/61
f 6/5/131 278/2/517 484/497/518 167/115/132
f 278/2/517 82/131/154 287/134/157 484/497/518
f 484/497/518 287/134/157 84/37/162 280/40/519
f 167/115/132 484/497/518 280/40/519 16/5/133
f 9/126/149 277/498/520 485/499/521 170/127/150
f 277/498/520 81/36/82 288/80/85 485/499/521
f 485/499/521 288/80/85 83/65/90 279/500/522
f 170/127/150 485/499/521 279/500/522 19/128/151
f 49/154/189 234/153/188 486/501/523 281/502/514
f 234/153/188 19/128/187 279/500/524 486/501/523
f 486/501/523 279/500/524 83/65/68 289/62/65
f 281/502/514 486/501/523 289/62/65 85/61/64
f 20/60/63 233/59/62 487/503/525 161/137/526
f 233/59/62 50/58/61 203/496/516 487/503/525
f 487/503/525 203/496/516 86/9/41 290/38/38
f 161/137/526 487/503/525 290/38/38 84/37/37
f 40/184/221 213/270/299 488/504/527 228/185/222
f 213/270/299 87/505/28 291/506/31 488/504/527
f 488/504/527 291/506/31 81/507/36 277/508/528
f 228/185/222 488/504/527 277/508/528 9/186/223
f 10/142/167 148/509/529 489/510/530 227/143/168
f 148/509/529 82/511/1 292/4/4 489/510/530
f 489/510/530 292/4/4 88/495/9 284/512/303
f 227/143/168 489/510/530 284/512/303 39/144/169
f 111/513/531 383/514/532 490/515/533 294/516/534
f 383/514/532 22/81/91 236/84/94 490/515/533
f 490/515/533 236/84/94 21/86/99 380/517/535
f 294/516/534 490/515/533 380/517/535 92/518/536
f 108/519/322 379/175/319 491/520/537 301/521/537
f 379/175/319 55/522/262 140/523/265 491/520/537
f 491/520/537 140/523/265 54/309/270 388/524/352
f 301/521/537 491/520/537 388/524/352 104/525/351
f 26/526/190 384/527/390 492/528/538 177/529/312
f 384/527/390 107/530/389 306/531/539 492/528/538
f 492/528/538 306/531/539 105/532/540 387/533/541
f 177/529/312 492/528/538 387/533/541 25/534/54
f 99/535/542 374/536/543 493/537/544 308/538/545
f 374/536/543 27/44/46 149/47/49 493/537/544
f 493/537/544 149/47/49 25/51/54 387/539/541
f 308/538/545 493/537/544 387/539/541 105/540/540
f 90/541/546 323/542/547 494/543/548 373/544/549
f 323/542/547 102/545/550 378/546/551 494/543/548
f 494/543/548 378/546/551 23/147/176 181/145/173
f 373/544/549 494/543/548 181/145/173 29/111/172
f 51/347/367 375/547/552 495/548/553 184/348/121
f 375/547/552 89/313/554 321/549/555 495/548/553
f 495/548/553 321/549/555 98/550/556 377/551/557
f 184/348/121 495/548/553 377/551/557 53/327/368
f 30/324/341 381/552/558 496/553/559 175/325/342
f 381/552/558 110/554/560 299/555/561 496/553/559
f 496/553/559 299/555/561 93/372/562 382/556/563
f 175/325/342 496/553/559 382/556/563 28/162/343
f 95/557/313 385/558/316 497/559/564 330/560/565
f 385/558/316 24/561/109 180/562/291 497/559/564
f 497/559/564 180/562/291 23/563/176 378/564/551
f 330/560/565 497/559/564 378/564/551 102/545/550
f 67/378/271 398/565/566 498/566/567 255/432/455
f 398/565/566 132/567/568 361/568/569 498/566/567
f 498/566/567 361/568/569 128/569/570 403/570/571
f 255/432/455 498/566/567 403/570/571 66/110/456
f 132/571/568 398/572/566 499/573/572 341/574/572
f 398/572/566 67/233/271 259/236/274 499/573/572
f 499/573/572 259/236/274 71/402/279 396/575/420
f 341/574/572 499/573/572 396/575/420 119/412/419
f 114/576/573 370/577/574 500/578/575 389/579/576
f 370/577/574 134/580/577 394/581/578 500/578/575
f 500/578/575 394/581/578 64/582/298 241/583/305
f 389/579/576 500/578/575 241/583/305 57/584/304
f 126/585/579 402/586/580 501/587/581 334/588/582
f 402/586/580 65/382/118 260/108/121 501/587/581
f 501/587/581 260/108/121 66/382/126 403/589/583
f 334/588/582 501/587/581 403/589/583 128/590/584
f 131/591/585 397/592/586 502/593/587 359/594/588
f 397/592/586 61/163/199 245/166/202 502/593/587
f 502/593/587 245/166/202 60/171/207 404/459/589
f 359/594/588 502/593/587 404/459/589 129/595/590
f 61/596/199 397/597/586 503/598/591 243/599/412
f 397/597/586 131/600/585 346/601/592 503/598/591
f 503/598/591 346/601/592 120/602/400 395/603/399
f 243/599/412 503/598/591 395/603/399 62/392/252
f 122/604/471 399/605/474 504/606/593 365/607/594
f 399/605/474 63/608/100 242/609/294 504/606/593
f 504/606/593 242/609/294 64/610/298 394/611/578
f 365/607/594 504/606/593 394/611/578 134/612/577
f 69/424/443 391/613/595 505/614/596 253/425/94
f 391/613/595 113/615/597 353/616/598 505/614/596
f 505/614/596 353/616/598 117/617/599 393/395/600
f 253/425/94 505/614/596 393/395/600 70/394/444
f 111/618/531 294/619/534 506/620/601 293/621/602
f 294/619/534 92/518/536 295/622/603 506/620/601
f 506/620/601 295/622/603 94/623/604 296/624/605
f 293/621/602 506/620/601 296/624/605 112/625/606
f 112/625/606 296/624/605 507/626/607 297/627/608
f 296/624/605 94/623/604 298/628/609 507/626/607
f 507/626/607 298/628/609 93/372/562 299/555/561
f 297/627/608 507/626/607 299/555/561 110/629/560
f 108/630/322 301/631/537 508/632/537 300/633/610
f 301/631/537 104/525/351 302/634/611 508/632/537
f 508/632/537 302/634/611 106/635/612 303/636/613
f 300/633/610 508/632/537 303/636/613 109/637/614
f 109/637/614 303/636/613 509/638/615 304/639/616
f 303/636/613 106/635/612 305/640/617 509/638/615
f 509/638/615 305/640/617 105/532/540 306/531/539
f 304/639/616 509/638/615 306/531/539 107/530/389
f 99/641/542 308/642/545 510/643/618 307/644/619
f 308/642/545 105/532/540 305/640/617 510/643/618
f 510/643/618 305/640/617 106/645/612 309/646/620
f 307/644/619 510/643/618 309/646/620 100/647/621
f 100/648/621 309/649/620 511/650/622 310/651/623
f 309/649/620 106/652/612 302/653/611 511/650/622
f 511/650/622 302/653/611 104/319/351 311/332/350
f 310/651/623 511/650/622 311/332/350 98/331/349
f 110/292/317 312/654/314 512/655/624 297/656/625
f 312/654/314 95/657/313 313/658/626 512/655/624
f 512/655/624 313/658/626 97/659/627 314/660/628
f 297/656/625 512/655/624 314/660/628 112/625/629
f 112/625/629 314/660/628 513/661/630 293/662/631
f 314/660/628 97/659/627 315/663/632 513/661/630
f 513/661/630 315/663/632 96/664/216 316/665/215
f 293/662/631 513/661/630 316/665/215 111/666/214
f 90/541/633 318/667/634 514/668/635 317/669/636
f 318/667/634 99/641/637 307/644/638 514/668/635
f 514/668/635 307/644/638 100/648/639 319/670/640
f 317/669/636 514/668/635 319/670/640 91/671/641
f 91/671/641 319/670/640 515/672/642 320/673/643
f 319/670/640 100/648/639 310/651/644 515/672/642
f 515/672/642 310/651/644 98/331/556 321/674/555
f 320/673/643 515/672/642 321/674/555 89/675/554
f 102/676/550 323/677/547 516/678/645 322/679/646
f 323/677/547 90/541/546 317/669/647 516/678/645
f 516/678/645 317/669/647 91/671/648 324/680/649
f 322/679/646 516/678/645 324/680/649 103/681/650
f 103/681/650 324/680/649 517/682/651 325/683/652
f 324/680/649 91/671/648 320/684/653 517/682/651
f 517/682/651 320/684/653 89/313/335 326/685/334
f 325/683/652 517/682/651 326/685/334 101/686/333
f 107/687/389 327/688/392 518/689/654 304/690/616
f 327/688/392 93/372/394 298/691/655 518/689/654
f 518/689/654 298/691/655 94/623/656 328/692/657
f 304/690/616 518/689/654 328/692/657 109/693/614
f 109/693/614 328/692/657 519/694/658 300/695/610
f 328/692/657 94/623/656 295/622/659 519/694/658
f 519/694/658 295/622/659 92/303/324 329/302/323
f 300/695/610 519/694/658 329/302/323 108/696/322
f 95/657/313 330/697/565 520/698/660 313/658/626
f 330/697/565 102/699/550 322/700/646 520/698/660
f 520/698/660 322/700/646 103/701/650 331/702/661
f 313/658/626 520/698/660 331/702/661 97/659/627
f 97/659/627 331/702/661 521/703/662 315/663/632
f 331/702/661 103/701/650 325/704/652 521/703/662
f 521/703/662 325/704/652 101/705/333 332/706/338
f 315/663/632 521/703/662 332/706/338 96/664/216
f 126/384/579 334/707/582 522/708/663 333/709/664
f 334/707/582 128/590/584 335/710/665 522/708/663
f 522/708/663 335/710/665 130/711/666 336/712/667
f 333/709/664 522/708/663 336/712/667 127/713/668
f 127/713/668 336/712/667 523/714/669 337/715/670
f 336/712/667 130/711/666 338/716/671 523/714/669
f 523/714/669 338/716/671 129/458/481 339/457/480
f 337/715/670 523/714/669 339/457/480 125/717/479
f 132/718/568 341/719/572 524/720/572 340/721/672
f 341/719/572 119/412/419 342/722/673 524/720/572
f 524/720/572 342/722/673 121/723/674 343/724/675
f 340/721/672 524/720/572 343/724/675 133/725/676
f 133/725/676 343/724/675 525/726/677 344/727/678
f 343/724/675 121/723/674 345/728/679 525/726/677
f 525/726/677 345/728/679 120/729/400 346/730/592
f 344/727/678 525/726/677 346/730/592 131/731/585
f 114/576/381 348/359/384 526/732/680 347/733/681
f 348/359/384 116/361/386 349/734/682 526/732/680
f 526/732/680 349/734/682 118/735/683 350/736/684
f 347/733/681 526/732/680 350/736/684 115/737/685
f 115/737/685 350/736/684 527/738/686 351/739/687
f 350/736/684 118/735/683 352/740/688 527/738/686
f 527/738/686 352/740/688 117/617/599 353/741/598
f 351/739/687 527/738/686 353/741/598 113/742/597
f 125/743/475 354/744/472 528/745/689 337/746/690
f 354/744/472 122/747/471 355/748/691 528/745/689
f 528/745/689 355/748/691 124/749/692 356/750/693
f 337/746/690 528/745/689 356/750/693 127/713/694
f 127/713/694 356/750/693 529/751/695 333/752/696
f 356/750/693 124/749/692 357/753/697 529/751/695
f 529/751/695 357/753/697 123/754/409 358/755/408
f 333/752/696 529/751/695 358/755/408 126/756/407
f 131/731/585 359/757/588 530/758/698 344/759/678
f 359/757/588 129/595/590 338/716/699 530/758/698
f 530/758/698 338/716/699 130/711/700 360/760/701
f 344/759/678 530/758/698 360/760/701 133/725/676
f 133/725/676 360/760/701 531/761/702 340/762/672
f 360/760/701 130/711/700 335/763/703 531/761/702
f 531/761/702 335/763/703 128/569/570 361/764/569
f 340/762/672 531/761/702 361/764/569 132/718/568
f 116/373/395 362/375/398 532/765/704 349/734/705
f 362/375/398 120/377/400 345/728/679 532/765/704
f 532/765/704 345/728/679 121/723/674 363/766/706
f 349/734/705 532/765/704 363/766/706 118/735/707
f 118/735/707 363/766/706 533/767/708 352/768/709
f 363/766/706 121/723/674 342/769/673 533/767/708
f 533/767/708 342/769/673 119/400/419 364/399/418
f 352/768/709 533/767/708 364/399/418 117/398/417
f 122/747/471 365/770/594 534/771/710 355/748/691
f 365/770/594 134/612/577 366/772/711 534/771/710
f 534/771/710 366/772/711 136/773/712 367/774/713
f 355/748/691 534/771/710 367/774/713 124/749/692
f 124/749/692 367/774/713 535/775/714 357/753/697
f 367/774/713 136/773/712 368/776/715 535/775/714
f 535/775/714 368/776/715 135/412/430 369/411/429
f 357/753/697 535/775/714 369/411/429 123/754/409
f 134/612/577 370/777/574 536/778/716 366/772/711
f 370/777/574 114/356/573 347/733/717 536/778/716
f 536/778/716 347/733/717 115/779/718 371/780/719
f 366/772/711 536/778/716 371/780/719 136/773/712
f 136/773/712 371/780/719 537/781/720 368/776/715
f 371/780/719 115/779/718 351/782/721 537/781/720
f 537/781/720 351/782/721 113/783/438 372/420/437
f 368/776/715 537/781/720 372/420/437 135/412/430
f 90/541/633 373/544/722 538/784/723 318/785/634
f 373/544/722 29/786/127 176/114/130 538/784/723
f 538/784/723 176/114/130 27/44/135 374/536/724
f 318/785/634 538/784/723 374/536/724 99/535/637
o Cube.001
v -0.666759 -0.146588 0.523796
v -0.666759 0.146373 0.523872
v -0.665938 -0.147524 -0.493816
v -0.665938 0.147524 -0.493816
v 0.666759 -0.146588 0.524153
v 0.666759 0.146373 0.524229
v 0.665837 -0.147524 -0.493959
v 0.665837 0.147524 -0.493959
v -0.666759 -0.000218 0.560221
v -0.665938 -0.000218 -0.458197
v 0.665837 -0.000218 -0.458339
v 0.666759 -0.000218 0.560221
v -0.666759 0.118260 0.534976
v -0.665938 0.118260 -0.483441
v 0.665837 0.118260 -0.483584
v 0.666759 0.118260 0.534976
v -0.665938 -0.119132 -0.483750
v 0.665837 -0.119132 -0.483893
v 0.666759 -0.119132 0.534667
v -0.666759 -0.119132 0.534667
v 0.666759 -0.147524 0.352370
v 0.666759 0.147524 0.352370
v 0.666759 -0.000218 0.387990
v 0.666759 0.118260 0.362745
v 0.666759 -0.119132 0.362436
v 0.666759 -0.147524 -0.322327
v 0.666759 0.147524 -0.322327
v 0.666759 -0.000218 -0.286708
v 0.666759 0.118260 -0.311952
v 0.666759 -0.119132 -0.312261
v 0.441639 -0.147524 -0.494800
v 0.441639 0.147524 -0.494800
v 0.441639 -0.000218 -0.459181
v 0.441639 0.118260 -0.484425
v 0.441639 -0.119132 -0.484734
v -0.442144 -0.147524 -0.494800
v -0.442144 0.147524 -0.494800
v -0.442144 -0.000218 -0.459181
v -0.442144 0.118260 -0.484425
v -0.442144 -0.119132 -0.484734
v -0.666759 -0.147524 -0.322119
v -0.666759 0.147524 -0.322119
v -0.666759 -0.000218 -0.286500
v -0.666759 0.118260 -0.311744
v -0.666759 -0.119132 -0.312053
v -0.666759 -0.147524 0.351064
v -0.666759 0.147524 0.351064
v -0.666759 -0.000218 0.386683
v -0.666759 0.118260 0.361439
v -0.666759 -0.119132 0.361129
v -0.666759 -0.147405 0.500207
v -0.666759 0.141089 0.526738
v -0.666656 0.147524 -0.470878
v -0.665938 -0.141835 -0.491799
v -0.636732 -0.147524 -0.494677
v 0.636429 0.147524 -0.494695
v 0.665837 -0.141835 -0.491942
v 0.666644 -0.147524 -0.471243
v 0.666759 0.147378 0.501241
v 0.666759 -0.141716 0.526561
v -0.666759 -0.068100 0.550684
v -0.665938 0.067446 -0.467521
v 0.665837 0.067446 -0.467664
v 0.666759 0.067446 0.550896
v 0.666759 -0.000218 0.536907
v 0.636429 -0.000218 -0.459076
v -0.666656 -0.000218 -0.435259
v -0.666759 0.067446 0.550896
v -0.665938 0.141235 -0.491586
v 0.665837 0.141235 -0.491729
v 0.666759 0.141089 0.526784
v 0.666759 0.118260 0.511663
v 0.636429 0.118260 -0.484320
v -0.666656 0.118260 -0.460503
v -0.665938 -0.068100 -0.467734
v 0.665837 -0.068100 -0.467876
v 0.666759 -0.068100 0.550684
v -0.666759 -0.141716 0.526516
v -0.666656 -0.119132 -0.460812
v 0.636429 -0.119132 -0.484629
v 0.666759 -0.119132 0.511354
v 0.666759 -0.147405 0.501231
v 0.666759 0.147524 0.015040
v 0.666759 -0.000218 0.050659
v 0.666759 0.118260 0.025415
v 0.666759 -0.119132 0.025105
v 0.666759 -0.141835 0.354387
v 0.666759 0.067446 0.378665
v 0.666759 -0.068100 0.378453
v 0.666759 0.141235 0.354600
v 0.666759 -0.147524 0.015040
v 0.666644 0.147524 -0.471243
v 0.666644 -0.000218 -0.435623
v 0.666644 0.118260 -0.460868
v 0.666644 -0.119132 -0.461177
v 0.666759 0.141235 -0.320098
v 0.666759 -0.068100 -0.296245
v 0.666759 0.067446 -0.296032
v 0.666759 -0.141835 -0.320310
v 0.636429 -0.147524 -0.494695
v -0.000290 0.147524 -0.494800
v -0.000290 -0.000218 -0.459181
v -0.000290 0.118260 -0.484425
v -0.000290 -0.119132 -0.484734
v 0.441639 -0.141835 -0.492783
v 0.441639 0.067446 -0.468505
v 0.441639 -0.068100 -0.468718
v 0.441639 0.141235 -0.492570
v -0.000290 -0.147524 -0.494800
v -0.636732 0.147524 -0.494677
v -0.636732 -0.000218 -0.459058
v -0.636732 0.118260 -0.484302
v -0.636732 -0.119132 -0.484611
v -0.442144 0.141235 -0.492570
v -0.442144 -0.068100 -0.468718
v -0.442144 0.067446 -0.468505
v -0.442144 -0.141835 -0.492783
v -0.666656 -0.147524 -0.470878
v -0.666759 0.147524 0.014408
v -0.666759 -0.000218 0.050027
v -0.666759 0.118260 0.024783
v -0.666759 -0.119132 0.024474
v -0.666759 -0.141835 -0.320102
v -0.666759 0.067446 -0.295824
v -0.666759 -0.068100 -0.296037
v -0.666759 0.141235 -0.319889
v -0.666759 -0.147524 0.014408
v -0.666759 0.147378 0.500217
v -0.666759 -0.000218 0.535929
v -0.666759 0.118260 0.510685
v -0.666759 -0.119132 0.510375
v -0.666759 0.141235 0.353293
v -0.666759 -0.068100 0.377146
v -0.666759 0.067446 0.377359
v -0.666759 -0.141835 0.353081
v -0.666656 0.141235 -0.468648
v 0.636429 0.141235 -0.492465
v 0.666759 0.141211 0.503510
v 0.666759 -0.068100 0.527371
v 0.636429 -0.068100 -0.468612
v -0.666656 -0.068100 -0.444796
v 0.666759 0.067446 0.527583
v 0.636429 0.067446 -0.468400
v -0.666656 0.067446 -0.444583
v -0.666656 -0.141835 -0.468861
v 0.636429 -0.141835 -0.492678
v 0.666759 -0.141815 0.503296
v 0.666759 -0.141835 0.017057
v 0.666759 0.067446 0.041335
v 0.666759 -0.068100 0.041122
v 0.666759 0.141235 0.017269
v 0.666644 0.141235 -0.469013
v 0.666644 -0.068100 -0.445160
v 0.666644 0.067446 -0.444948
v 0.666644 -0.141835 -0.469226
v -0.000290 -0.141835 -0.492783
v -0.000290 0.067446 -0.468505
v -0.000290 -0.068100 -0.468718
v -0.000290 0.141235 -0.492570
v -0.636732 0.141235 -0.492447
v -0.636732 -0.068100 -0.468595
v -0.636732 0.067446 -0.468382
v -0.636732 -0.141835 -0.492660
v -0.666759 -0.141835 0.016425
v -0.666759 0.067446 0.040703
v -0.666759 -0.068100 0.040490
v -0.666759 0.141235 0.016638
v -0.666759 0.141211 0.502524
v -0.666759 -0.068100 0.526392
v -0.666759 0.067446 0.526605
v -0.666759 -0.141815 0.502310
vn -1.0000 -0.0000 -0.0000
vn -0.6178 0.2628 -0.7411
vn -0.6178 -0.2628 -0.7411
vn 1.0000 -0.0000 -0.0000
vn 0.6148 0.2636 -0.7434
vn 0.6148 -0.2636 -0.7434
vn -0.7378 0.0009 -0.6750
vn 0.7348 0.0009 -0.6783
vn -0.7094 -0.2232 -0.6686
vn 0.7063 -0.2242 -0.6715
vn -0.7093 0.2234 -0.6686
vn 0.7062 0.2244 -0.6715
vn 1.0000 0.0002 -0.0005
vn 1.0000 -0.0002 -0.0005
vn 1.0000 -0.0000 -0.0004
vn 1.0000 -0.0001 -0.0004
vn 1.0000 0.0001 -0.0004
vn 0.0003 0.3342 -0.9425
vn 0.0003 -0.3342 -0.9425
vn 0.0003 0.0013 -1.0000
vn 0.0003 -0.3166 -0.9486
vn 0.0003 0.3169 -0.9485
vn -0.0003 0.3342 -0.9425
vn -0.0003 -0.3342 -0.9425
vn -0.0003 0.0013 -1.0000
vn -0.0003 -0.3166 -0.9486
vn -0.0003 0.3169 -0.9485
vn -1.0000 0.0002 -0.0004
vn -1.0000 -0.0002 -0.0004
vn -1.0000 -0.0000 -0.0003
vn -1.0000 -0.0001 -0.0003
vn -1.0000 0.0001 -0.0003
vn -0.9998 -0.0069 -0.0193
vn -0.7052 0.2369 -0.6683
vn -0.0141 0.3341 -0.9424
vn 0.0120 -0.3341 -0.9424
vn 0.7021 0.2379 -0.6711
vn 0.9997 0.0078 -0.0219
vn -0.7245 -0.1507 -0.6726
vn 0.7215 -0.1514 -0.6757
vn 0.0128 0.0013 -0.9999
vn -0.9999 -0.0000 -0.0147
vn -0.7052 -0.2369 -0.6683
vn 0.7021 -0.2379 -0.6711
vn 0.0121 -0.3166 -0.9485
vn -0.9999 -0.0052 -0.0158
vn -0.7243 0.1518 -0.6726
vn 0.7212 0.1525 -0.6757
vn -0.9999 0.0052 -0.0158
vn 0.0121 0.3169 -0.9484
vn 0.9997 -0.0078 -0.0219
vn 0.9999 -0.0000 -0.0166
vn 0.9998 -0.0059 -0.0179
vn 0.9998 0.0059 -0.0179
vn 0.0120 0.3341 -0.9425
vn -0.0000 -0.3342 -0.9425
vn -0.0000 0.0013 -1.0000
vn -0.0000 -0.3166 -0.9486
vn -0.0000 0.3169 -0.9485
vn 0.0003 -0.2185 -0.9758
vn 0.0003 0.2200 -0.9755
vn -0.0000 0.3342 -0.9425
vn -0.0141 -0.3341 -0.9424
vn -0.0151 0.0013 -0.9999
vn -0.0143 -0.3166 -0.9484
vn -0.0143 0.3169 -0.9484
vn -0.0003 0.2200 -0.9755
vn -0.0003 -0.2185 -0.9758
vn -0.0003 0.3341 -0.9425
vn -0.9998 0.0069 -0.0193
vn -0.9999 -0.0057 -0.0160
vn 0.0120 -0.3341 -0.9425
vn 0.0125 0.2202 -0.9754
vn -0.9999 0.0033 -0.0152
vn 0.0125 -0.2186 -0.9757
vn -0.9999 -0.0032 -0.0152
vn -0.9999 0.0057 -0.0160
vn 0.0121 0.3341 -0.9425
vn 0.9998 -0.0064 -0.0181
vn 0.9998 0.0037 -0.0172
vn 0.9998 -0.0037 -0.0172
vn 0.9998 0.0064 -0.0181
vn -0.0000 -0.2185 -0.9758
vn -0.0000 0.2200 -0.9755
vn -0.0142 -0.3341 -0.9424
vn -0.0147 0.2202 -0.9754
vn -0.0147 -0.2186 -0.9757
vn -0.0142 0.3341 -0.9424
vt 0.389701 0.322965
vt 0.391973 0.293762
vt 0.414603 0.293762
vt 0.414034 0.322965
vt 0.416967 0.285768
vt 0.417449 0.285768
vt 0.417932 0.285768
vt 0.417878 0.293762
vt 0.417874 0.322965
vt 0.556454 0.322965
vt 0.558741 0.293762
vt 0.581386 0.293762
vt 0.580815 0.322965
vt 0.583897 0.285768
vt 0.584242 0.285768
vt 0.584588 0.285768
vt 0.584609 0.293762
vt 0.584610 0.322965
vt 0.723087 0.322965
vt 0.725369 0.293762
vt 0.748003 0.293173
vt 0.747433 0.320609
vt 0.750466 0.285768
vt 0.750855 0.285768
vt 0.751244 0.285768
vt 0.751244 0.290227
vt 0.751244 0.294686
vt 0.723087 0.624703
vt 0.723087 0.559839
vt 0.747433 0.560434
vt 0.747433 0.627106
vt 0.723087 0.473557
vt 0.747433 0.473534
vt 0.751244 0.473280
vt 0.751244 0.563409
vt 0.751244 0.653537
vt 0.556454 0.624703
vt 0.556454 0.559839
vt 0.580815 0.559839
vt 0.580815 0.624703
vt 0.556454 0.473557
vt 0.580815 0.473557
vt 0.584610 0.473557
vt 0.584610 0.559839
vt 0.584610 0.624703
vt 0.389701 0.624703
vt 0.389701 0.559839
vt 0.414034 0.559839
vt 0.414034 0.624703
vt 0.389701 0.473557
vt 0.414034 0.473557
vt 0.417874 0.473557
vt 0.417874 0.559839
vt 0.417874 0.624703
vt 0.723087 0.387553
vt 0.747433 0.386958
vt 0.751244 0.383983
vt 0.556454 0.387553
vt 0.580815 0.387553
vt 0.580815 0.322965
vt 0.584610 0.387553
vt 0.389701 0.387553
vt 0.414034 0.387553
vt 0.389701 0.322965
vt 0.414034 0.322965
vt 0.417874 0.387553
vt 0.416967 0.660792
vt 0.391973 0.653560
vt 0.414603 0.653560
vt 0.417449 0.660792
vt 0.389701 0.624703
vt 0.414034 0.624703
vt 0.417874 0.624703
vt 0.417878 0.653560
vt 0.417932 0.660792
vt 0.583897 0.660792
vt 0.558741 0.653560
vt 0.581386 0.653560
vt 0.584242 0.660792
vt 0.556454 0.624703
vt 0.580815 0.624703
vt 0.584609 0.653560
vt 0.584588 0.660792
vt 0.750466 0.660792
vt 0.725369 0.653560
vt 0.748003 0.654161
vt 0.750855 0.660792
vt 0.751244 0.657164
vt 0.751244 0.660792
vt 0.585413 0.660792
vt 0.610504 0.653560
vt 0.667939 0.653560
vt 0.667940 0.660792
vt 0.612785 0.624703
vt 0.667939 0.624703
vt 0.612785 0.473557
vt 0.612785 0.387553
vt 0.667939 0.387553
vt 0.667939 0.473557
vt 0.612785 0.322965
vt 0.667939 0.322965
vt 0.723087 0.322965
vt 0.723087 0.473557
vt 0.612785 0.624703
vt 0.612785 0.559839
vt 0.667939 0.559839
vt 0.667939 0.624703
vt 0.723087 0.559839
vt 0.723087 0.624703
vt 0.612785 0.322965
vt 0.610504 0.293762
vt 0.667939 0.293762
vt 0.667939 0.322965
vt 0.585413 0.285768
vt 0.667940 0.285768
vt 0.587854 0.293762
vt 0.588425 0.322965
vt 0.585001 0.285768
vt 0.588425 0.559839
vt 0.588425 0.624703
vt 0.588425 0.473557
vt 0.588425 0.387553
vt 0.588425 0.322965
vt 0.587854 0.653560
vt 0.585001 0.660792
vt 0.588425 0.624703
vt 0.418547 0.660792
vt 0.443715 0.653560
vt 0.501223 0.653560
vt 0.501222 0.660792
vt 0.446003 0.624703
vt 0.501224 0.624703
vt 0.446003 0.473557
vt 0.446003 0.387553
vt 0.501224 0.387553
vt 0.501224 0.473557
vt 0.446003 0.322965
vt 0.501224 0.322965
vt 0.446003 0.624703
vt 0.446003 0.559839
vt 0.501224 0.559839
vt 0.501224 0.624703
vt 0.446003 0.322965
vt 0.443715 0.293762
vt 0.501223 0.293762
vt 0.501224 0.322965
vt 0.418547 0.285768
vt 0.501222 0.285768
vt 0.421094 0.293762
vt 0.421664 0.322965
vt 0.418240 0.285768
vt 0.421664 0.559839
vt 0.421664 0.624703
vt 0.421664 0.473557
vt 0.421664 0.387553
vt 0.421664 0.322965
vt 0.421093 0.653560
vt 0.418240 0.660792
vt 0.421664 0.624703
vt 0.252409 0.660792
vt 0.277377 0.653560
vt 0.334685 0.653560
vt 0.334688 0.660792
vt 0.279646 0.624703
vt 0.334684 0.624703
vt 0.279646 0.473557
vt 0.279646 0.387553
vt 0.334684 0.387553
vt 0.334684 0.473557
vt 0.279646 0.322965
vt 0.334684 0.322965
vt 0.279646 0.624703
vt 0.279646 0.559839
vt 0.334684 0.559839
vt 0.334684 0.624703
vt 0.279646 0.322965
vt 0.277377 0.293762
vt 0.334685 0.293762
vt 0.334684 0.322965
vt 0.252409 0.285768
vt 0.334688 0.285768
vt 0.251276 0.294686
vt 0.251276 0.290227
vt 0.254679 0.293173
vt 0.255247 0.320609
vt 0.251276 0.285768
vt 0.251842 0.285768
vt 0.251276 0.653537
vt 0.251276 0.563408
vt 0.255247 0.560434
vt 0.255247 0.627106
vt 0.251276 0.473280
vt 0.255247 0.473534
vt 0.279646 0.473557
vt 0.279646 0.559839
vt 0.251276 0.383983
vt 0.255247 0.386958
vt 0.279646 0.387553
vt 0.251276 0.660792
vt 0.251276 0.657164
vt 0.254679 0.654161
vt 0.251842 0.660792
s 1
usemtl pages
f 582/787/755 664/788/755 674/789/795 612/790/770
f 664/788/755 580/791/753 591/792/757 674/789/795
f 674/789/795 591/792/757 542/793/727 607/794/767
f 612/790/770 674/789/795 607/794/767 552/795/733
f 572/796/745 646/797/743 675/798/796 611/799/769
f 646/797/743 570/800/743 594/801/760 675/798/796
f 675/798/796 594/801/760 546/802/730 608/803/768
f 611/799/769 675/798/796 608/803/768 553/804/734
f 562/805/728 628/806/728 676/807/728 610/808/728
f 628/806/728 560/809/728 597/810/728 676/807/728
f 676/807/728 597/810/728 544/811/728 609/812/728
f 610/808/728 676/807/728 609/812/728 554/813/728
f 563/814/728 627/815/728 677/816/728 619/817/728
f 627/815/728 561/818/728 603/819/728 677/816/728
f 677/816/728 603/819/728 550/820/728 615/821/728
f 619/817/728 677/816/728 615/821/728 557/822/728
f 573/823/746 645/824/785 678/825/797 618/826/774
f 645/824/785 571/827/744 604/828/765 678/825/797
f 678/825/797 604/828/765 549/829/732 614/830/772
f 618/826/774 678/825/797 614/830/772 556/831/736
f 583/832/756 663/833/756 679/834/798 617/835/773
f 663/833/756 581/836/754 605/837/766 679/834/798
f 679/834/798 605/837/766 548/838/731 613/839/771
f 617/835/773 679/834/798 613/839/771 555/840/735
f 561/818/728 626/841/728 680/842/728 603/819/728
f 626/841/728 562/805/728 610/808/728 680/842/728
f 680/842/728 610/808/728 554/813/728 602/843/728
f 603/819/728 680/842/728 602/843/728 550/820/728
f 571/827/744 644/844/784 681/845/799 604/828/765
f 644/844/784 572/796/745 611/846/769 681/845/799
f 681/845/799 611/846/769 553/804/734 601/847/764
f 604/828/765 681/845/799 601/847/764 549/829/732
f 581/836/754 662/848/755 682/849/800 605/837/766
f 662/848/755 582/850/755 612/851/770 682/849/800
f 682/849/800 612/851/770 552/795/733 600/852/763
f 605/837/766 682/849/800 600/852/763 548/838/731
f 579/853/752 661/854/756 683/855/801 656/856/794
f 661/854/756 583/857/756 617/858/773 683/855/801
f 683/855/801 617/858/773 555/859/735 592/860/758
f 656/856/794 683/855/801 592/860/758 541/861/726
f 569/862/742 643/863/742 684/864/802 638/865/779
f 643/863/742 573/866/746 618/867/774 684/864/802
f 684/864/802 618/867/774 556/831/736 595/868/761
f 638/865/779 684/864/802 595/868/761 545/869/729
f 559/870/728 625/871/728 685/872/728 620/873/728
f 625/871/728 563/814/728 619/817/728 685/872/728
f 685/872/728 619/817/728 557/822/728 598/874/728
f 620/873/728 685/872/728 598/874/728 543/875/728
f 564/876/737 637/877/741 686/878/728 629/879/728
f 637/877/741 568/880/741 624/881/728 686/878/728
f 686/878/728 624/881/728 563/814/728 625/871/728
f 629/879/728 686/878/728 625/871/728 559/870/728
f 566/882/739 636/883/740 687/884/728 622/885/728
f 636/883/740 567/886/740 623/887/728 687/884/728
f 687/884/728 623/887/728 562/888/728 626/841/728
f 622/885/728 687/884/728 626/841/728 561/889/728
f 568/890/741 635/891/741 688/892/728 624/893/728
f 635/891/741 566/882/739 622/885/728 688/892/728
f 688/892/728 622/885/728 561/889/728 627/894/728
f 624/893/728 688/892/728 627/894/728 563/895/728
f 567/896/740 634/897/740 689/898/728 623/899/728
f 634/897/740 565/900/738 621/901/728 689/898/728
f 689/898/728 621/901/728 560/809/728 628/806/728
f 623/899/728 689/898/728 628/806/728 562/805/728
f 553/804/734 608/803/768 690/902/803 632/903/777
f 608/803/768 546/802/730 630/904/775 690/902/803
f 690/902/803 630/904/775 565/900/738 634/897/740
f 632/903/777 690/902/803 634/897/740 567/896/740
f 556/831/736 614/830/772 691/905/804 633/906/778
f 614/830/772 549/829/732 631/907/776 691/905/804
f 691/905/804 631/907/776 566/882/739 635/891/741
f 633/906/778 691/905/804 635/891/741 568/890/741
f 549/829/732 601/847/764 692/908/805 631/907/776
f 601/847/764 553/804/734 632/909/777 692/908/805
f 692/908/805 632/909/777 567/886/740 636/883/740
f 631/907/776 692/908/805 636/883/740 566/882/739
f 545/869/729 595/868/761 693/910/806 596/911/762
f 595/868/761 556/831/736 633/912/778 693/910/806
f 693/910/806 633/912/778 568/880/741 637/877/741
f 596/911/762 693/910/806 637/877/741 564/876/737
f 574/913/747 655/914/793 694/915/786 647/916/786
f 655/914/793 578/917/751 642/918/783 694/915/786
f 694/915/786 642/918/783 573/866/746 643/863/742
f 647/916/786 694/915/786 643/863/742 569/862/742
f 576/919/749 654/920/792 695/921/807 640/922/781
f 654/920/792 577/923/750 641/924/782 695/921/807
f 695/921/807 641/924/782 572/796/745 644/844/784
f 640/922/781 695/921/807 644/844/784 571/827/744
f 578/925/751 653/926/791 696/927/808 642/928/783
f 653/926/791 576/919/749 640/922/781 696/927/808
f 696/927/808 640/922/781 571/827/744 645/824/785
f 642/928/783 696/927/808 645/824/785 573/823/746
f 577/929/750 652/930/748 697/931/780 641/932/782
f 652/930/748 575/933/748 639/934/780 697/931/780
f 697/931/780 639/934/780 570/800/743 646/797/743
f 641/932/782 697/931/780 646/797/743 572/796/745
f 552/795/733 607/794/767 698/935/809 650/936/789
f 607/794/767 542/793/727 648/937/787 698/935/809
f 698/935/809 648/937/787 575/933/748 652/930/748
f 650/936/789 698/935/809 652/930/748 577/929/750
f 555/840/735 613/839/771 699/938/810 651/939/790
f 613/839/771 548/838/731 649/940/788 699/938/810
f 699/938/810 649/940/788 576/919/749 653/926/791
f 651/939/790 699/938/810 653/926/791 578/925/751
f 548/838/731 600/852/763 700/941/811 649/940/788
f 600/852/763 552/795/733 650/942/789 700/941/811
f 700/941/811 650/942/789 577/923/750 654/920/792
f 649/940/788 700/941/811 654/920/792 576/919/749
f 541/861/726 592/860/758 701/943/812 593/944/759
f 592/860/758 555/859/735 651/945/790 701/943/812
f 701/943/812 651/945/790 578/917/751 655/914/793
f 593/944/759 701/943/812 655/914/793 574/913/747
f 584/946/725 673/947/725 702/948/725 665/949/725
f 673/947/725 588/950/725 660/951/725 702/948/725
f 702/948/725 660/951/725 583/857/756 661/854/756
f 665/949/725 702/948/725 661/854/756 579/853/752
f 586/952/725 672/953/725 703/954/725 658/955/725
f 672/953/725 587/956/725 659/957/725 703/954/725
f 703/954/725 659/957/725 582/850/755 662/848/755
f 658/955/725 703/954/725 662/848/755 581/836/754
f 588/958/725 671/959/725 704/960/725 660/961/725
f 671/959/725 586/952/725 658/955/725 704/960/725
f 704/960/725 658/955/725 581/836/754 663/833/756
f 660/961/725 704/960/725 663/833/756 583/832/756
f 587/962/725 670/963/725 705/964/725 659/965/725
f 670/963/725 585/966/725 657/967/725 705/964/725
f 705/964/725 657/967/725 580/791/753 664/788/755
f 659/965/725 705/964/725 664/788/755 582/787/755
f 551/968/725 590/969/725 706/970/725 668/971/725
f 590/969/725 540/972/725 666/973/725 706/970/725
f 706/970/725 666/973/725 585/966/725 670/963/725
f 668/971/725 706/970/725 670/963/725 587/962/725
f 558/974/725 599/975/725 707/976/725 669/977/725
f 599/975/725 547/978/725 667/979/725 707/976/725
f 707/976/725 667/979/725 586/980/725 671/981/725
f 669/977/725 707/976/725 671/981/725 588/950/725
f 547/978/725 606/982/725 708/983/725 667/979/725
f 606/982/725 551/968/725 668/971/725 708/983/725
f 708/983/725 668/971/725 587/962/725 672/984/725
f 667/979/725 708/983/725 672/984/725 586/980/725
f 539/985/725 616/986/725 709/987/725 589/988/725
f 616/986/725 558/974/725 669/977/725 709/987/725
f 709/987/725 669/977/725 588/950/725 673/947/725
f 589/988/725 709/987/725 673/947/725 584/946/725
