# Blender 4.2.3 LTS
# www.blender.org
mtllib livre_rouge.mtl
o Cube
v -0.689131 0.025281 0.588404
v -0.688139 -0.155755 -0.523486
v 0.688581 0.155741 -0.522463
v -0.687923 0.155948 -0.523547
v -0.688658 0.179255 -0.522801
v 0.654831 0.147682 0.524303
v 0.688404 0.174116 0.543666
v 0.655873 -0.000294 0.560692
v -0.653732 0.148269 -0.497670
v -0.688400 -0.174300 0.542922
v -0.688338 -0.152573 0.527944
v 0.688670 -0.179140 -0.522975
v 0.687924 -0.155917 -0.523657
v -0.688417 -0.085883 0.576005
v -0.688400 0.174115 0.543668
v 0.688490 0.169710 0.491666
v -0.688384 0.152779 0.527592
v 0.654743 0.178948 0.506826
v -0.688490 -0.169699 0.493416
v 0.688471 -0.169700 0.493527
v -0.654636 -0.178950 0.508605
v 0.688399 -0.174298 0.542924
v 0.655092 0.148586 -0.499336
v 0.689129 0.025302 0.588405
v -0.688492 -0.023191 0.566862
v 0.688487 0.023081 0.566843
v -0.689385 0.163631 0.533101
v 0.689387 0.163728 0.533074
v -0.654116 0.186382 -0.497224
v 0.687963 0.179080 -0.523372
v -0.653990 0.147672 0.524235
v 0.654626 0.067949 0.551011
v -0.654698 0.000027 0.594517
v -0.655282 -0.179283 0.546405
v 0.654542 -0.082637 0.582109
v -0.654131 -0.186553 -0.498748
v -0.654390 0.082751 0.582076
v 0.654127 0.179436 0.546293
v -0.655849 0.179062 0.546985
v 0.655485 0.000030 0.594394
v -0.654634 -0.147687 0.523621
v -0.654262 0.000138 0.560495
v 0.654288 0.186510 -0.498618
v -0.655129 -0.148563 -0.499162
v 0.654452 -0.186305 -0.498558
v -0.688597 -0.179201 -0.523050
v 0.688421 -0.085888 0.576003
v 0.688399 -0.078125 0.554451
v 0.654717 -0.068085 0.551005
v -0.655049 -0.092720 0.579739
v 0.654982 -0.179285 0.547140
v -0.656088 -0.074382 0.550049
v -0.689398 -0.163625 0.537184
v 0.689397 -0.163519 0.537167
v -0.687283 0.069352 0.553153
v 0.654877 0.093753 0.579473
v 0.688334 0.152581 0.527863
v -0.656481 0.178505 0.505021
v -0.656624 0.171091 0.487300
v 0.657491 0.171002 0.487166
v 0.656537 -0.178481 0.506772
v 0.656228 -0.171140 0.489126
v 0.654768 -0.147740 0.524571
v -0.658130 -0.170902 0.488807
v 0.655308 0.180450 0.255776
v -0.688471 0.169711 0.491780
v -0.657506 0.179776 0.287601
v -0.655533 -0.180277 0.266274
v 0.653756 -0.148303 -0.498686
v 0.656975 -0.179941 0.282301
v 0.688388 -0.152785 0.526881
vn 0.9991 -0.0352 0.0219
vn 0.9987 0.0395 -0.0334
vn 0.9898 0.0384 -0.1369
vn -0.9990 0.0015 -0.0443
vn -0.9993 -0.0296 0.0217
vn -0.9986 -0.0129 0.0510
vn -0.7851 0.0601 -0.6165
vn 0.9993 -0.0070 -0.0358
vn 0.9996 0.0256 0.0118
vn 0.9977 0.0549 0.0387
vn 0.1764 -0.2419 0.9541
vn 0.0894 -0.2349 0.9679
vn 0.1040 -0.8232 0.5582
vn -0.0511 0.2546 -0.9657
vn -0.0671 -0.0172 -0.9976
vn -0.6928 -0.0126 -0.7210
vn -0.6204 0.5201 -0.5870
vn 0.6899 0.0074 -0.7239
vn 0.5821 0.5398 -0.6081
vn 0.6215 -0.5185 -0.5873
vn -0.6143 -0.5272 -0.5871
vn 0.0737 0.2175 -0.9733
vn -0.0654 -0.9912 -0.1148
vn -0.1081 -0.9867 -0.1214
vn 0.0734 -0.9899 -0.1213
vn -0.1035 0.2631 0.9592
vn 0.1274 0.2662 0.9555
vn -0.1306 0.8175 0.5609
vn 0.1277 -0.9848 -0.1179
vn 0.0771 -0.8074 -0.5849
vn -0.5959 0.5281 -0.6050
vn -0.0979 0.8159 -0.5699
vn -0.0757 0.9903 -0.1166
vn 0.7037 -0.7092 -0.0435
vn 0.9967 -0.0694 0.0428
vn 0.0850 -0.0192 0.9962
vn -0.0812 -0.0242 0.9964
vn -0.1704 0.7967 -0.5799
vn -0.9966 -0.0698 0.0434
vn 0.9991 -0.0081 -0.0417
vn 0.0997 0.8061 -0.5833
vn 0.1491 0.2395 -0.9594
vn 0.1816 0.8106 -0.5568
vn 0.0954 0.8315 0.5473
vn 0.0660 -0.2516 -0.9656
vn 0.0856 0.0247 -0.9960
vn -0.6949 -0.1687 -0.6991
vn 0.2249 0.8077 0.5450
vn 0.1448 0.0925 0.9851
vn -0.7031 0.7098 -0.0424
vn -0.9995 0.0318 0.0043
vn -0.9977 0.0550 0.0384
vn -0.0760 -0.9801 -0.1836
vn 0.0801 -0.9782 -0.1915
vn 0.1926 -0.0864 -0.9775
vn 0.1491 -0.7953 -0.5876
vn 0.1148 0.9909 -0.0707
vn 0.0335 0.9866 -0.1598
vn 0.0787 0.9800 -0.1830
vn 0.1152 0.9932 0.0174
vn -0.7027 -0.7101 -0.0443
vn -0.0333 -0.9868 -0.1586
vn -0.1127 -0.9935 0.0177
vn 0.9982 -0.0532 -0.0293
vn 0.9986 -0.0127 0.0505
vn -0.9973 0.0607 -0.0418
vn -0.1124 0.9935 0.0178
vn -0.0830 0.9908 -0.1072
vn -0.1857 -0.2295 0.9554
vn -0.0909 -0.2575 0.9620
vn -0.1394 0.0930 0.9859
vn 0.0650 0.9910 -0.1170
vn 0.7221 0.0091 -0.6917
vn -0.1064 -0.8273 0.5516
vn -0.2690 0.7948 0.5440
vn -0.0803 0.9789 -0.1880
vn -0.0918 -0.8059 -0.5849
vn -0.1967 -0.7908 -0.5796
vn 0.1433 0.9835 -0.1102
vn 0.0846 0.9906 -0.1074
vn 0.1133 -0.9934 0.0177
vn 0.0830 -0.9903 -0.1112
vn -0.0823 -0.9904 -0.1114
vn 0.2216 -0.8210 0.5262
vn -0.2183 -0.8196 0.5297
vn -0.9972 -0.0474 -0.0575
vn 0.9985 0.0543 -0.0011
vn -0.0325 0.9858 -0.1649
vn 0.0326 -0.9857 -0.1655
vt 0.377743 0.749088
vt 0.375190 0.749636
vt 0.431597 0.750000
vt 0.517873 0.999772
vt 0.377496 0.999997
vt 0.438741 0.999772
vt 0.480742 1.000000
vt 0.517892 0.750228
vt 0.623773 0.748863
vt 0.624249 0.749794
vt 0.438737 0.750228
vt 0.442578 0.756366
vt 0.373913 0.750217
vt 0.436413 0.993900
vt 0.500015 0.993611
vt 0.874918 0.500071
vt 0.874648 0.500804
vt 0.625406 0.500643
vt 0.374947 0.500053
vt 0.374942 0.500023
vt 0.125350 0.500741
vt 0.442187 0.756306
vt 0.869488 0.505658
vt 0.630262 0.505274
vt 0.557471 0.993606
vt 0.564896 0.756128
vt 0.624378 0.998882
vt 0.625012 0.500159
vt 0.625668 0.750612
vt 0.125103 0.500014
vt 0.126856 0.749672
vt 0.130202 0.505176
vt 0.374772 0.739802
vt 0.375317 0.749791
vt 0.500016 0.756195
vt 0.500016 0.993662
vt 0.375478 0.998858
vt 0.375378 1.000000
vt 0.375436 0.999982
vt 0.519144 0.750000
vt 0.374272 0.750206
vt 0.625520 0.750897
vt 0.557862 0.756323
vt 0.500015 0.756096
vt 0.559755 0.999705
vt 0.874772 0.739388
vt 0.874993 0.749070
vt 0.874959 0.749722
vt 0.131259 0.742452
vt 0.368725 0.742163
vt 0.624610 0.749600
vt 0.625000 0.738575
vt 0.631172 0.738267
vt 0.631235 0.741973
vt 0.631102 0.687004
vt 0.125000 0.749709
vt 0.125228 0.739807
vt 0.131183 0.738672
vt 0.131146 0.685749
vt 0.868703 0.691552
vt 0.868401 0.506182
vt 0.435734 0.993911
vt 0.369482 0.505448
vt 0.375513 0.998846
vt 0.873541 0.749770
vt 0.868731 0.741732
vt 0.874009 0.749829
vt 0.875000 0.749591
vt 0.631268 0.506171
vt 0.125040 0.749777
vt 0.125006 0.749231
vt 0.368710 0.690819
vt 0.368461 0.505334
vt 0.131322 0.506305
vt 0.624232 0.998760
vt 0.624626 1.000000
vt 0.624246 0.999997
vt 0.624224 0.999979
vt 0.126688 0.749753
vt 0.868811 0.738371
vt 0.368797 0.738800
s 1
usemtl cover
f 54/1/1 71/2/2 48/3/3
f 1/4/4 53/5/5 14/6/6
f 1/4/4 25/7/7 53/5/5
f 24/8/8 28/9/9 7/10/10
f 47/11/11 35/12/12 51/13/13
f 52/14/14 25/7/7 42/15/15
f 4/16/16 5/17/17 30/18/18
f 13/19/19 12/20/20 46/21/21
f 42/15/15 49/22/22 52/14/14
f 9/23/23 4/16/24 23/24/25
f 37/25/26 56/26/27 39/27/28
f 3/28/29 6/29/30 23/24/25
f 2/30/31 41/31/32 44/32/33
f 20/33/34 54/1/1 22/34/35
f 35/12/12 40/35/36 33/36/37
f 41/37/32 11/38/38 52/14/14
f 14/6/6 53/5/5 10/39/39
f 24/8/8 48/3/3 26/40/40
f 63/41/41 48/3/42 71/2/43
f 39/27/28 56/26/27 38/42/44
f 32/43/45 8/44/46 42/15/15
f 1/4/4 55/45/47 25/7/7
f 25/7/7 55/45/47 42/15/15
f 7/10/48 56/26/27 24/8/49
f 66/46/50 5/17/17 27/47/51
f 66/46/50 27/47/51 15/48/52
f 20/33/34 12/20/20 54/1/1
f 51/13/13 21/49/53 61/50/54
f 26/40/55 48/3/42 49/22/22 8/44/46
f 6/29/30 3/28/29 57/51/56
f 16/52/57 60/53/58 18/54/59
f 60/53/58 16/52/57 65/55/60
f 41/31/32 2/30/31 11/56/38
f 19/57/61 64/58/62 21/49/53
f 64/58/62 19/57/61 68/59/63
f 7/10/48 38/42/44 56/26/27
f 63/41/41 49/22/22 48/3/42
f 57/51/64 28/9/9 24/8/8 26/40/40
f 47/11/65 22/34/35 54/1/1
f 53/5/5 25/7/7 11/38/66
f 40/35/36 35/12/12 47/11/11 24/8/49
f 67/60/67 29/61/68 5/17/17 66/46/50
f 52/14/14 11/38/38 25/7/7
f 14/6/69 50/62/70 33/36/37 1/4/71
f 44/32/33 69/63/72 13/19/19 2/30/31
f 30/18/18 3/28/73 4/16/16
f 2/30/31 13/19/19 46/21/21
f 52/14/14 49/22/22 63/41/41
f 42/15/15 8/44/46 49/22/22
f 4/16/24 3/28/29 23/24/25
f 40/35/36 56/26/27 37/25/26 33/36/37
f 34/64/74 51/13/13 50/62/70
f 15/48/75 39/65/28 58/66/76 66/46/50
f 4/16/24 9/23/23 31/67/77 17/68/78
f 65/55/60 16/52/57 30/18/79 43/69/80
f 65/55/60 43/69/80 29/61/68 67/60/67
f 43/69/80 30/18/79 5/17/17 29/61/68
f 19/57/61 10/70/39 53/71/5
f 70/72/81 45/73/82 12/20/20 20/33/34
f 36/74/83 45/73/82 70/72/81 68/59/63
f 68/59/63 19/57/61 46/21/21 36/74/83
f 46/21/21 12/20/20 45/73/82 36/74/83
f 22/34/84 51/13/13 61/50/54 20/33/34
f 10/39/85 34/64/74 50/62/70 14/6/69
f 33/36/37 50/62/70 35/12/12
f 35/12/12 50/62/70 51/13/13
f 52/14/14 63/41/41 41/37/32
f 32/43/45 55/45/47 31/75/77 6/29/30
f 22/34/84 47/11/11 51/13/13
f 24/8/8 47/11/65 54/1/1
f 24/8/8 54/1/1 48/3/3
f 42/15/15 55/45/47 32/43/45
f 17/76/86 55/45/47 1/4/4 27/77/51
f 1/4/4 15/78/52 27/77/51
f 6/29/30 57/51/56 26/40/55 32/43/45
f 55/45/47 17/76/78 31/75/77
f 26/40/55 8/44/46 32/43/45
f 15/78/75 1/4/71 37/25/26 39/27/28
f 17/68/86 27/47/51 5/17/17 4/16/16
f 33/36/37 37/25/26 1/4/71
f 24/8/49 56/26/27 40/35/36
f 6/29/30 31/67/77 9/23/23 23/24/25
f 7/10/48 16/52/57 18/54/59 38/42/44
f 3/28/73 30/18/18 16/52/87 28/9/9
f 18/54/59 58/66/76 39/65/28 38/42/44
f 13/19/19 69/63/72 63/41/41 71/2/43
f 44/32/33 41/31/32 63/41/41 69/63/72
f 10/70/85 19/57/61 21/49/53 34/79/74
f 71/2/2 54/1/1 12/20/20 13/19/19
f 59/80/88 58/66/76 18/54/59 60/53/58
f 21/49/53 51/13/13 34/79/74
f 19/57/61 53/71/5 46/21/21
f 46/21/21 53/71/5 2/30/31
f 66/46/50 58/66/76 59/80/88
f 59/80/88 67/60/67 66/46/50
f 28/9/9 57/51/64 3/28/73
f 67/60/67 59/80/88 60/53/58 65/55/60
f 62/81/89 61/50/54 21/49/53 64/58/62
f 53/71/5 11/56/66 2/30/31
f 20/33/34 61/50/54 62/81/89
f 62/81/89 70/72/81 20/33/34
f 68/59/63 70/72/81 62/81/89 64/58/62
f 16/52/87 7/10/10 28/9/9
o Cube.001
v -0.666759 -0.146468 0.524209
v 0.666759 0.146314 0.524488
v -0.666759 -0.000218 0.560221
v -0.666759 0.118260 0.534976
v -0.665810 -0.147578 -0.494307
v 0.666842 0.147331 0.525191
v 0.665754 0.147574 -0.494245
v 0.666144 -0.000409 -0.458780
v -0.666698 -0.147524 -0.469191
v -0.666759 0.146258 0.524278
v 0.665756 -0.147576 -0.494241
v 0.666759 -0.147087 0.524150
v -0.666759 -0.068100 0.550684
v -0.665881 0.067620 -0.468223
v 0.665799 0.067152 -0.468053
v 0.666759 0.067446 0.550896
v 0.666759 -0.000218 0.560221
v -0.666206 -0.000105 -0.458850
v -0.666759 0.067446 0.550896
v -0.666656 0.147524 -0.470572
v -0.665880 -0.067923 -0.468356
v 0.665800 -0.068396 -0.468399
v 0.666759 -0.068100 0.550684
v 0.666759 -0.119132 0.534667
v 0.666644 0.147524 -0.470937
v 0.666696 -0.147524 -0.469403
v -0.665811 0.147583 -0.494289
v -0.666838 0.147484 0.497590
v -0.666759 -0.147311 0.525155
vn -1.0000 -0.0001 0.0009
vn -1.0000 0.0009 0.0029
vn -0.6123 0.2446 -0.7518
vn 1.0000 -0.0002 0.0002
vn 0.6115 -0.2448 -0.7524
vn 0.7385 0.0014 -0.6742
vn -0.9998 0.0069 -0.0205
vn -1.0000 0.0012 0.0030
vn 0.6114 0.2450 -0.7524
vn 1.0000 -0.0003 0.0001
vn -1.0000 -0.0002 0.0008
vn -0.6806 -0.1542 -0.7163
vn 0.6731 -0.1544 -0.7232
vn 1.0000 0.0008 0.0056
vn 1.0000 -0.0002 0.0012
vn -0.7386 0.0013 -0.6742
vn -1.0000 0.0003 0.0020
vn -0.9998 -0.0072 -0.0204
vn -0.6865 0.1550 -0.7105
vn 0.6824 0.1553 -0.7143
vn 1.0000 -0.0003 0.0010
vn 1.0000 -0.0000 -0.0001
vn 0.9997 -0.0079 -0.0219
vn 0.9997 0.0076 -0.0220
vn -0.6120 -0.2445 -0.7521
vn -1.0000 0.0002 0.0010
vn -1.0000 -0.0003 0.0001
vt 0.417428 0.660653
vt 0.417883 0.559839
vt 0.417933 0.660760
vt 0.750947 0.289738
vt 0.751244 0.383983
vt 0.751244 0.473280
vt 0.751244 0.563409
vt 0.751240 0.660679
vt 0.252127 0.285770
vt 0.417867 0.473558
vt 0.417438 0.285891
vt 0.417884 0.387553
vt 0.585022 0.660651
vt 0.584604 0.559839
vt 0.584587 0.660773
vt 0.584604 0.387553
vt 0.585012 0.285891
vt 0.584608 0.473557
vt 0.251583 0.657414
vt 0.251276 0.294686
vt 0.251276 0.383983
vt 0.251276 0.473280
vt 0.751244 0.653537
vt 0.417933 0.285802
vt 0.584587 0.285787
vt 0.251276 0.563409
vt 0.251276 0.285987
s 1
usemtl pages
f 80/82/96 92/83/108 76/84/92
f 77/85/93 87/86/103 88/87/104
f 94/88/110 83/89/99 77/85/93 88/87/104
f 99/90/115 89/91/105 80/82/96
f 91/92/107 85/93/101 89/91/105
f 97/94/113 77/85/93 83/89/99
f 93/95/109 97/94/113 82/96/98
f 86/97/102 96/98/112 79/99/95
f 79/99/95 77/85/93 97/94/113
f 99/90/115 80/82/96 100/100/116
f 75/101/91 99/90/115 90/102/106
f 90/102/106 99/90/115 74/103/90
f 83/89/99 94/88/110 95/104/111
f 86/97/102 85/93/101 98/105/114 78/106/94
f 80/82/96 89/91/105 92/83/108
f 99/90/115 91/92/107 89/91/105
f 91/92/107 98/105/114 85/93/101
f 93/95/109 79/99/95 97/94/113
f 86/97/102 78/106/94 96/98/112
f 79/99/95 96/98/112 77/85/93
f 79/99/95 89/91/105 85/93/101 86/97/102
f 93/95/109 92/83/108 89/91/105 79/99/95
f 82/96/98 76/84/92 92/83/108 93/95/109
f 99/90/115 100/100/116 84/107/100 74/103/90
f 81/108/97 99/90/115 75/101/91
l 100 72
l 77 73
